<?xml version="1.0" standalone="no"?>
<!DOCTYPE svg PUBLIC "-//W3C//DTD SVG 1.1//EN" "http://www.w3.org/Graphics/SVG/1.1/DTD/svg11.dtd" >
<svg>
<metadata>
Created by FontForge 20110222 at Mon Mar  7 13:25:44 2011
 By www-data
Typeface (c) Marijanco Galevski -- Inventif Systems 1993. All Rights Reserved
</metadata>
<defs>
<font id="MacedonianTms" horiz-adv-x="1024" >
  <font-face 
    font-family="Macedonian Tms"
    font-weight="400"
    font-stretch="normal"
    units-per-em="2048"
    panose-1="2 2 6 3 5 4 5 2 3 4"
    ascent="1638"
    descent="-410"
    x-height="963"
    cap-height="1413"
    bbox="-82 -477 2066 1886"
    underline-thickness="100"
    underline-position="-173"
    unicode-range="U+0020-2122"
  />
    <missing-glyph />
    <glyph glyph-name="space" unicode=" " horiz-adv-x="512" 
 />
    <glyph glyph-name="exclam" unicode="!" horiz-adv-x="682" 
d="M360 359h-38l-88 810q-6 53 -6 79q0 62 33 100.5t81 38.5q47 0 79.5 -38t32.5 -113v-28q-3 -25 -4 -39zM340 193q45 0 78 -32.5t33 -77.5q0 -44 -32.5 -77.5t-78.5 -33.5q-24 0 -42 7t-37 25q-32 34 -32 79t32.5 77.5t78.5 32.5z" />
    <glyph glyph-name="quotedbl" unicode="&#x22;" horiz-adv-x="836" 
d="M576 803l-54 292l-22 121l-2 50q0 63 27.5 92t74.5 29q42 0 71 -29t29 -78q0 -86 -19 -184l-57 -293h-48zM210 803l-55 296q-22 127 -22 166q0 64 26.5 93t71.5 29q43 0 72.5 -29.5t29.5 -78.5q0 -21 -6 -64t-20 -117l-54 -295h-43z" />
    <glyph glyph-name="numbersign" unicode="#" horiz-adv-x="909" 
d="M690 760q-12 49 -37 86t-69 55.5t-101 18.5q-53 0 -92 -23q-40 -17 -82 -63q-20 -24 -32.5 -44t-21.5 -44t-13 -45.5t-4 -49.5l467 2q0 60 -15 107zM231 584v-15v-20v-8v-52q2 -6 4.5 -18.5t4.5 -21.5q0 -11 1.5 -17t6.5 -20l16 -58q12 -30 39 -75q12 -22 28.5 -40.5
t39.5 -37.5q14 -12 38.5 -26t47.5 -25l49 -13l57 -4q61 0 111 12q25 7 48 18t48 30q41 28 80 69q16 17 34 39t34 47l34 -20q-14 -33 -34.5 -68t-45.5 -70q-44 -63 -102 -112q-49 -43 -119 -76q-64 -22 -135 -22q-97 0 -178 30.5t-141 93.5q-27 30 -49 66.5t-42 83.5
q-28 89 -28 188q0 57 6 106.5t20 94.5q19 57 39 92q11 21 24.5 44t29.5 42q53 78 141.5 119t191.5 41q46 0 80 -6t70 -23q69 -28 117 -84q47 -50 77 -125q3 -6 6 -19t11 -42q10 -45 10 -92l-668 2zM695 1390l-295 -345h-34l105 345h224z" />
    <glyph glyph-name="dollar" unicode="$" 
d="M108 334h44q0 -66 23 -118.5t63 -91.5q75 -72 224 -87v584q-225 138 -300 246q-53 76 -53 185q0 123 91.5 215t261.5 111v92h64v-92q42 0 70 -4.5t68 -14.5q29 -6 192 -69v-299h-39q0 76 -22 134t-61 98q-69 73 -208 88v-508q252 -175 323.5 -259t71.5 -208
q0 -138 -104 -243t-291 -121v-128h-64v128q-44 0 -86.5 5.5t-88.5 16.5q-79 16 -179 57v283zM462 845v465q-98 -12 -147.5 -63.5t-49.5 -129.5q0 -72 44 -136t153 -136zM526 37q75 12 115 37q55 34 88 91t33 121q0 66 -39 124t-197 168v-541z" />
    <glyph glyph-name="percent" unicode="%" horiz-adv-x="1706" 
d="M1392 1387l-988 -1443h-89l988 1443h89zM364 1387q134 0 209 -111.5t75 -257.5q0 -173 -84 -268.5t-202 -95.5q-78 0 -144.5 43t-106 129.5t-39.5 191.5q0 106 39.5 194t109.5 131.5t143 43.5zM361 1331q-50 0 -90 -60t-40 -252q0 -139 22 -212q17 -54 53 -85
q21 -18 52 -18q48 0 82 52q50 77 50 257q0 190 -49 267q-32 51 -80 51zM1346 673q70 0 140.5 -45t109.5 -131t39 -189q0 -177 -84.5 -270.5t-201.5 -93.5q-71 0 -140.5 45t-109 128.5t-39.5 190.5q0 105 39 191.5t108 130.5q35 21 69.5 32t69.5 11zM1347 620q-47 0 -83 -54
q-45 -69 -45 -265q0 -179 46 -250q33 -51 82 -51q45 0 82 55q48 72 48 251q0 186 -48 263q-33 51 -82 51z" />
    <glyph glyph-name="ampersand" unicode="&#x26;" horiz-adv-x="569" 
d="M184 858q-6 25 -24 37q-9 6 -21 10.5t-26 7.5q-27 7 -70 7v43h483v-41q-43 0 -69 -9q-25 -5 -47 -18q-7 -5 -14 -15t-13 -22l-8 -59v-539l389 557q0 17 -2 28.5t-8 20.5q-6 19 -27 31l-47 16q-22 7 -68 7v43h484v-41q-43 0 -70 -9q-25 -6 -47 -18q-8 -6 -12.5 -12.5
t-14.5 -24.5l-8 -59v-637q0 -35 6 -61t25.5 -39t48.5 -19l72 -4v-39h-484v41l70 2q22 6 47 18q9 8 14.5 15.5t10.5 21.5q10 28 10 62v542l-389 -557q0 -27 6 -53q6 -18 29 -33l47 -16l69 -4v-39h-483v41l70 2q14 4 20.5 6t26.5 12q15 14 24 37q6 16 8.5 29.5t2.5 32.5v641
q0 19 -2 33t-9 24zM748 1390l-295 -345h-34l105 345h224z" />
    <glyph glyph-name="quotesingle" unicode="'" horiz-adv-x="369" 
d="M158 803l-54 296q-23 126 -23 166q0 64 26 93t71 29q44 0 74 -29.5t30 -77.5q0 -20 -6 -62t-20 -120l-54 -295h-44z" />
    <glyph glyph-name="parenleft" unicode="(" horiz-adv-x="682" 
d="M636 -401v-37q-151 75 -252 178q-144 144 -222 341.5t-78 409.5q0 308 153 564t399 367v-42q-122 -67 -201 -184.5t-118.5 -299t-39.5 -379.5q0 -212 33 -389q25 -136 63 -221q35 -82 99 -161q32 -39 72 -75t92 -72z" />
    <glyph glyph-name="parenright" unicode=")" horiz-adv-x="682" 
d="M46 1380v42q151 -75 253 -177q141 -144 220 -341t79 -411q0 -308 -152.5 -564t-399.5 -367v37q123 69 202 186t118 299t39 379q0 212 -33 389q-24 136 -61.5 219t-100.5 161.5t-164 147.5z" />
    <glyph glyph-name="asterisk" unicode="*" 
d="M494 1044q0 35 -6.5 66t-22 74.5t-24.5 78.5t-9 53q0 50 24 78t61 28q30 0 53.5 -27.5t23.5 -76.5q0 -45 -25.5 -123t-33.5 -151q55 35 99 85q67 77 101 98q35 19 67 19q33 0 55 -23q23 -21 23 -53q0 -36 -32.5 -65t-165.5 -59q-74 -16 -128 -39q48 -26 127 -41
q119 -21 157.5 -54.5t38.5 -72.5q0 -30 -23 -52q-10 -10 -23 -16t-29 -6q-29 0 -65.5 20.5t-99.5 94.5q-38 45 -102 92q0 -55 23 -124q36 -117 36 -161q0 -38 -24 -68q-24 -27 -51 -27q-37 0 -67 29q-21 21 -21 67q0 50 23 115l29 93q1 5 5 30t6 46q-57 -38 -103 -87
q-71 -80 -110 -104q-27 -16 -54 -16q-34 0 -58 23t-24 51q0 25 20.5 52t61.5 46q23 10 123 32q33 6 61 14.5t60 23.5q-54 27 -129 42q-123 26 -152 47q-45 33 -45 80q0 27 22.5 49.5t52.5 22.5q32 0 68.5 -20.5t93.5 -85.5q53 -62 112 -98z" />
    <glyph glyph-name="plus" unicode="+" horiz-adv-x="1155" 
d="M535 141v499h-498v82h498v497h80v-497h500v-82h-500v-499h-80z" />
    <glyph glyph-name="comma" unicode="," horiz-adv-x="512" 
d="M110 -341v44q103 33 159.5 105t56.5 152q0 17 -7.5 29t-15.5 12q-12 0 -48 -20q-18 -9 -38 -9q-49 0 -78 29t-29 80q0 48 37.5 83.5t91.5 35.5q66 0 117 -58q26 -29 39 -66t13 -86q0 -101 -71 -189.5t-227 -141.5z" />
    <glyph glyph-name="hyphen" unicode="-" horiz-adv-x="682" 
d="M83 535h517v-151h-517v151z" />
    <glyph glyph-name="period" unicode="." horiz-adv-x="512" 
d="M256 194q46 0 78.5 -32.5t32.5 -78.5q0 -44 -32.5 -77.5t-78.5 -33.5q-24 0 -42 7t-37 25q-32 34 -32 79q0 47 33 79t78 32z" />
    <glyph glyph-name="slash" unicode="/" horiz-adv-x="569" 
d="M574 1422l-491 -1450h-80l491 1450h80z" />
    <glyph glyph-name="zero" unicode="0" 
d="M74 670q0 232 69.5 399t186.5 250q91 65 186 65q155 0 280 -159q155 -197 155 -534q0 -122 -16 -218t-52 -183q-67 -165 -173.5 -239.5t-203.5 -74.5q-193 0 -323 229q-109 194 -109 465zM270 645q0 -278 69 -457q57 -149 170 -149q53 0 111 48t89 163q46 175 46 485
q0 231 -48 387q-36 113 -93 163q-41 33 -99 33q-67 0 -121 -61q-71 -81 -97.5 -261t-26.5 -351z" />
    <glyph glyph-name="one" unicode="1" 
d="M240 1223l330 161h33v-1145q0 -113 9 -141t41.5 -44.5t120.5 -16.5v-37h-510v37q94 0 122.5 15.5t40 40t11.5 146.5v732q0 149 -10 190q-6 31 -25 46.5t-45 15.5q-37 0 -103 -31z" />
    <glyph glyph-name="two" unicode="2" 
d="M939 261l-95 -261h-800v37q351 319 496 524.5t145 374.5q0 129 -78.5 212t-189.5 83q-100 0 -179 -58t-118 -172h-37q24 184 128 283.5t259 99.5q165 0 275.5 -105.5t110.5 -250.5q0 -101 -48 -206q-73 -161 -240 -343q-251 -274 -311 -328h354q112 0 154 8t76 32t61 70
h37z" />
    <glyph glyph-name="three" unicode="3" 
d="M104 1098q57 137 146 211.5t221 74.5q162 0 250 -106q66 -78 66 -169q0 -147 -186 -306q125 -48 189 -139.5t64 -214.5q0 -175 -112 -305q-146 -168 -423 -168q-137 0 -186.5 34t-49.5 73q0 29 24 51t56 22q17 0 25.5 -1t25.5 -7q16 -4 77 -37q59 -29 90 -38.5t72 -9.5
q102 0 177.5 79t75.5 187q0 41 -8 77.5t-27 76.5q-25 55 -57 85q-42 39 -117.5 72t-153.5 33h-32v30q77 9 157 56t116.5 113.5t36.5 145.5q0 102 -64.5 166t-160.5 64q-154 0 -259 -166z" />
    <glyph glyph-name="four" unicode="4" 
d="M953 500v-142h-182v-358h-165v358h-574v128l629 898h110v-884h182zM606 500v673l-476 -673h476z" />
    <glyph glyph-name="five" unicode="5" 
d="M889 1356l-78 -170h-408l-89 -182q265 -39 420 -197q133 -136 133 -320q0 -109 -43 -198t-109 -153t-148 -105q-116 -55 -236 -55q-122 0 -177.5 42t-55.5 91q0 27 23.5 49t57.5 22q28 0 45 -8q21 -8 67 -41q39 -26 75.5 -39t76.5 -13q117 0 205.5 88.5t88.5 215.5
q0 123 -78.5 229.5t-218.5 164.5q-56 23 -132 37.5t-165 14.5l260 527h486z" />
    <glyph glyph-name="six" unicode="6" 
d="M918 1384v-37q-134 -12 -216 -52t-164.5 -121.5t-135.5 -180.5q-25 -47 -47.5 -106.5t-41.5 -129.5q144 99 289 99q138 0 240.5 -111.5t102.5 -288.5q0 -170 -103 -310q-123 -170 -328 -170q-138 0 -236 92q-190 179 -190 464q0 182 72.5 346t208.5 291t260 171t231 44
h58zM296 684q-18 -135 -18 -218q0 -98 35.5 -209t105.5 -178q25 -23 56 -35t68 -12q86 0 155 81.5t69 234.5q0 172 -68 296.5t-193 124.5q-38 0 -80 -15t-130 -70z" />
    <glyph glyph-name="seven" unicode="7" 
d="M206 1356h727v-38l-452 -1346h-112l405 1221h-373q-111 0 -161 -27q-84 -45 -135 -142l-29 11z" />
    <glyph glyph-name="eight" unicode="8" 
d="M393 683q-161 132 -207.5 212.5t-46.5 165.5q0 131 102 227t271 96q165 0 264.5 -89t99.5 -203q0 -74 -54 -153.5t-225 -187.5q174 -134 233 -214q76 -103 76 -215q0 -142 -109 -244t-286 -102q-192 0 -301 121q-86 97 -86 212q0 89 60 178t209 196zM550 790
q119 107 151.5 170.5t32.5 141.5q0 105 -59 164.5t-161 59.5q-103 0 -166.5 -59t-63.5 -138q0 -26 6 -51t20 -53q28 -52 76 -99zM440 645q-82 -69 -123 -153q-20 -42 -30 -84.5t-10 -93.5q0 -130 70.5 -207t179.5 -77q108 0 173 60.5t65 148.5q0 73 -38 129
q-71 106 -287 277z" />
    <glyph glyph-name="nine" unicode="9" 
d="M108 -28v37q125 0 239.5 59.5t218.5 205.5q53 73 88.5 152t57.5 169q-157 -101 -284 -101q-142 0 -244.5 110.5t-102.5 293.5q0 176 102 317q124 169 321 169q166 0 286 -138q146 -172 146 -422q0 -224 -111 -420.5t-309 -325.5q-162 -106 -351 -106h-57zM728 669
q18 129 18 208q0 95 -33 208t-93.5 173.5t-137.5 60.5q-89 0 -156 -80.5t-67 -237.5q0 -211 89 -330q65 -86 160 -86q46 0 110 22t110 62z" />
    <glyph glyph-name="colon" unicode=":" horiz-adv-x="569" 
d="M289 944q45 0 78 -32.5t33 -78.5q0 -44 -32.5 -77.5t-78.5 -33.5q-24 0 -42 7t-37 25q-32 34 -32 79q0 46 32.5 78.5t78.5 32.5zM287 195q46 0 79 -33t33 -79q0 -44 -33 -79q-34 -32 -79 -32q-24 0 -42 7t-37 25q-32 34 -32 79q0 24 7 42t25 37q33 33 79 33z" />
    <glyph glyph-name="semicolon" unicode=";" horiz-adv-x="569" 
d="M282 945q46 0 78.5 -32t32.5 -78q0 -44 -32.5 -77.5t-78.5 -33.5q-24 0 -42 7t-37 25q-32 34 -32 79q0 46 33 78t78 32zM142 -341v44q103 33 159.5 105t56.5 152q0 17 -7.5 29t-15.5 12q-12 0 -48 -20q-18 -9 -38 -9q-49 0 -78 29t-29 80q0 48 37.5 83.5t91.5 35.5
q66 0 117 -58q26 -29 39 -66t13 -86q0 -101 -71 -189.5t-227 -141.5z" />
    <glyph glyph-name="less" unicode="&#x3c;" horiz-adv-x="1155" 
d="M39 706l1076 466v-87l-926 -402l926 -406v-90l-1076 470v49z" />
    <glyph glyph-name="equal" unicode="=" horiz-adv-x="1155" 
d="M37 883h1079v-82h-1079v82zM37 557h1079v-82h-1079v82z" />
    <glyph glyph-name="greater" unicode="&#x3e;" horiz-adv-x="1155" 
d="M1113 653l-1076 -466v86l927 402l-927 406v91l1076 -470v-49z" />
    <glyph glyph-name="question" unicode="?" horiz-adv-x="909" 
d="M454 320h-41q0 60 8.5 110.5t22.5 97.5q23 80 102 230q61 114 78.5 173.5t17.5 122.5q0 127 -67 202t-166 75q-87 0 -137 -41t-50 -89q0 -35 30 -90t30 -83q0 -37 -23 -61t-56 -24q-42 0 -76.5 42t-34.5 115q0 112 96.5 199.5t263.5 87.5q205 0 303 -120q72 -87 72 -195
q0 -72 -32 -149t-124 -182q-144 -163 -178 -233q-17 -36 -28 -84t-11 -104zM440 196q46 0 79 -32.5t33 -79.5q0 -44 -33 -79q-34 -32 -79 -32q-24 0 -42 7t-37 25q-32 34 -32 79q0 47 32.5 79.5t78.5 32.5z" />
    <glyph glyph-name="at" unicode="@" horiz-adv-x="2048" 
d="M543 252l-58 -72l-32 -43l-17 -26l-4 -23l6 -22l21 -15l41 -10l71 -2v-39h-551v41h39l33 12l33 25l41 45l559 680l-379 383l-88 78q-11 8 -40 30q-22 17 -36 25q-9 7 -26.5 16t-34.5 15q-30 10 -86 20v43h487v-41q-24 0 -37 -2l-20 -8l-45 -8q-13 -4 -18.5 -7.5t-11 -9.5
t-11.5 -30l6 -31l21 -31l45 -51l79 -80l383 -383v438q0 53 -12 97q-10 44 -33 61q-19 17 -55 29l-49 12l-53 2v43h626v-41q-30 0 -52.5 -2t-43 -7.5t-35 -12.5t-28.5 -21q-8 -7 -16 -22t-17 -39l-8 -41l-2 -60v-436l383 385l77 78l45 51l21 33l8 29q0 11 -12 26
q-13 13 -35 21l-25 6q-14 0 -22 4l-25 2q-18 0 -24 4v43h487v-41q-69 -9 -147.5 -54.5t-163.5 -133.5l-379 -381l559 -678l39 -47l33 -25l33 -12l41 -2v-39h-551v41h73q22 2 27.5 3.5t13.5 6.5l19 15q6 9 6 22l-6 21l-19 30l-35 45l-51 66l-366 446l-4 -452q0 -37 2 -62
t8 -42.5t14.5 -32.5t20.5 -27q23 -20 61 -31l41 -8l55 -2v-39h-626v41l96 6q40 9 61 31q19 14 33 59q12 44 12 105v454z" />
    <glyph glyph-name="A" unicode="A" horiz-adv-x="1716" 
d="M1053 551l-271 588l-266 -588h537zM883 1434l571 -1221l10 -27l23 -34l41 -58q8 -10 21 -19t36 -22q25 -7 45.5 -10.5t42.5 -3.5v-39h-604v41h21h28q8 0 16 0.5t27.5 4.5t38.5 17q11 10 15.5 14.5t9.5 14.5l8 35q0 23 -14 57l-37 88l-47 101l-43 90l-617 2l-55 -129
l-39 -100l-25 -72l-8 -39l6 -37q3 -5 8 -11.5t15 -17t43 -16.5l76 -4l16 2v-41h-469v41h18h22q13 3 19 4q15 5 22 8t21 13l35 28q8 8 14.5 16.5t10.5 18.5l24 47q3 9 7 19t10 22l18 33l567 1184h52z" />
    <glyph glyph-name="B" unicode="B" horiz-adv-x="1479" 
d="M276 1268q-12 38 -36 59q-15 10 -30.5 17.5t-39.5 13.5q-44 12 -100 12v43h1114l12 -354h-47q-12 53 -27 84q-6 20 -10.5 31.5t-15.5 31.5q-29 56 -58 78t-100 37q-37 7 -79.5 10.5t-94.5 3.5h-78q-18 0 -34.5 -0.5t-35.5 -3.5q-52 0 -71 -8q-18 -6 -27 -27l-8 -49v-459
h205q147 0 264 -22.5t190 -71.5q72 -40 115 -121q20 -40 29.5 -82.5t9.5 -93.5q0 -99 -36.5 -172.5t-109 -123.5t-159.5 -75.5t-201 -25.5h-747v41l106 6q40 6 64 27q18 16 34 61q7 24 11 49.5t4 57.5v927q0 57 -13 99zM516 131q3 -11 5 -16q6 -14 18 -21q7 -4 18 -7t37 -9
l102 -4q58 0 105 5t83.5 18t64 29t49 38.5t37.5 46.5t28 51q22 55 22 111q0 111 -38 180t-110 98t-185 45l-113 11l-129 4v-514z" />
    <glyph glyph-name="C" unicode="C" horiz-adv-x="1708" 
d="M264 1268q-12 38 -37.5 58.5t-69 32t-100.5 11.5v43h660v-41q-57 0 -107 -12q-22 -5 -37.5 -11.5t-27.5 -17.5q-18 -14 -37 -61q-4 -19 -7 -47t-3 -56v-929q0 -25 2 -43.5t8.5 -33t13 -23.5t19.5 -19q22 -16 57 -27l80 -8l350 2l80 6q16 3 29.5 8t25.5 15q21 14 34 45.5
t13 75.5v933q0 55 -12 99q-12 38 -37.5 58.5t-69 32t-100.5 11.5v43h660v-41q-57 0 -107 -12q-22 -5 -37.5 -11.5t-27.5 -17.5q-18 -14 -37 -61q-4 -19 -7 -47t-3 -56v-923q0 -36 2 -62t8 -45q12 -35 37 -59q26 -19 67 -31l105 -8v-428h-41l-31 123q-7 27 -14.5 48.5
t-20.5 45.5q-31 79 -59 111q-26 27 -82 47q-28 7 -55 10.5t-56 3.5h-1235v41l107 6q41 6 63 27q10 8 18.5 23.5t16.5 37.5q7 24 10.5 50t3.5 57v927q0 55 -12 99z" />
    <glyph glyph-name="D" unicode="D" horiz-adv-x="1479" 
d="M895 84q35 6 51 29q18 18 27 61l8 100v873v16v14q-2 10 -2 15q0 12 -2.5 24.5t-7.5 26.5q-6 27 -31 49q-8 9 -23 15.5t-38 13.5l-64 12l-74 2q-94 0 -150 -13t-82 -38.5t-38 -89.5q-4 -28 -7 -68t-3 -82l-6 -434q0 -72 -7 -129q0 -27 -3.5 -54t-10.5 -56q-3 -28 -6 -43
t-8 -27q-3 -21 -25 -74q-23 -72 -74 -153l488 2h57zM84 41q49 0 90 14q40 16 72 47q32 33 55 99q3 11 5 18.5t9 42.5l15 98l16 199l10 209l6 188l5 136q0 53 -2 88t-9 63q-9 54 -29 79t-62.5 36.5t-110.5 11.5v43h1267v-41q-56 0 -106 -12q-43 -9 -66 -29q-17 -14 -37 -61
q-4 -19 -7 -47t-3 -56v-923q0 -36 2 -62t8 -45q13 -35 37 -59q14 -10 29.5 -17.5t38.5 -13.5l104 -8v-428h-41q-46 152 -77 217q-32 82 -54.5 110t-77.5 48q-30 7 -60 10.5t-62 3.5h-627q-63 0 -113 -12q-20 -5 -40.5 -16.5t-37.5 -26.5q-30 -31 -65 -115q-29 -79 -68 -219
h-41v430h27z" />
    <glyph glyph-name="E" unicode="E" horiz-adv-x="1479" 
d="M252 1268q-11 36 -37 59q-26 20 -70 31q-42 12 -100 12v43h1225l16 -309h-37q0 35 -10 55q-3 20 -20 53q-16 37 -50 62q-31 25 -81.5 38t-118.5 13l-391 2q-32 0 -52 -8q-16 -5 -28 -19l-11 -43l-2 -75v-394h433h57l31 9q21 7 33 13.5t22 18.5q16 17 33 56q6 16 13 49.5
t9 46.5l41 2v-479h-41q-6 41 -18 86t-35 65q-16 17 -57 33q-38 12 -88 12l-433 2v-444v-45q0 -10 0.5 -20t3.5 -25q0 -29 13 -49q9 -15 30 -27l56 -8l430 2q66 0 121 14q53 20 98 56q20 17 40 39q16 18 38 49q15 22 30 52.5t25 61.5l39 -12l-111 -346h-1253v41l107 6
q41 6 63 27q20 17 35 61q7 24 10.5 50t3.5 57v927q0 55 -12 99z" />
    <glyph glyph-name="F" unicode="F" horiz-adv-x="1708" 
d="M477 276q-117 32 -196.5 98t-124.5 148q-20 45 -29.5 89t-9.5 94q0 51 9 92.5t30 83.5q39 80 120 146.5t201.5 102t265.5 35.5v66q0 19 -3 34t-11 31q-11 26 -35.5 40t-72.5 26l-93 8v43h652v-41h-24t-26 -2q-22 0 -45 -8q-20 -3 -37 -8.5t-30 -14.5q-22 -9 -39 -39
q-7 -15 -10.5 -31.5t-3.5 -39.5v-62q148 0 266 -37q113 -30 193.5 -95t125.5 -150q19 -40 31 -84q4 -20 7 -45.5t3 -50.5q0 -52 -9 -94.5t-32 -86.5q-37 -81 -119 -146t-202 -102q-58 -14 -128 -23t-136 -9v-62q0 -39 12 -69q12 -25 43 -43l67 -23l93 -8v-39h-652v41h37h29
l27 4q46 7 68 21t40 45q7 17 10.5 33.5t3.5 35.5v66q-143 0 -266 30zM573 1075q-65 -23 -120 -86q-50 -56 -74 -129q-25 -66 -25 -155q0 -46 5 -84.5t18 -71.5q21 -64 72 -127q47 -57 122.5 -87t171.5 -30v801q-90 0 -170 -31zM1133 334q74 27 123 86t73.5 128.5t24.5 156.5
q0 42 -6 79t-21 76q-25 76 -72 129q-44 54 -119 84.5t-171 30.5v-797q50 0 89.5 6t78.5 21z" />
    <glyph glyph-name="G" unicode="G" horiz-adv-x="1251" 
d="M264 1268q-12 38 -37.5 58.5t-69 32t-100.5 11.5v43h1133l39 -371h-47q-17 65 -43 125q-13 29 -27.5 51.5t-32.5 38.5q-26 31 -74.5 49.5t-107.5 18.5l-307 2q-32 0 -51 -8q-17 -5 -29 -19l-10 -43l-2 -75v-938q0 -59 12 -101t37 -65q26 -20 69 -31l115 -8v-39h-674v41
l107 6q41 6 63 27q10 8 18.5 23.5t16.5 37.5q7 24 10.5 50t3.5 57v927q0 55 -12 99z" />
    <glyph glyph-name="H" unicode="H" horiz-adv-x="1593" 
d="M696 1413v-41q-20 0 -38 -0.5t-29 -3.5l-49 -6q-18 -3 -29 -14q-6 -8 -12 -31l2 -23l4 -16l14 -25l29 -36l254 -343l137 158l104 129l66 94q16 28 22 54q0 18 -12 30.5t-37 18.5l-49 8l-53 4v43h516v-41h-14q-26 0 -46 -2t-38.5 -7.5t-35 -13t-32.5 -20.5
q-29 -17 -70 -63l-94 -105l-315 -362l383 -518l92 -121l64 -72q11 -11 26.5 -21t32.5 -16q33 -12 80 -12v-39h-639v41h65q17 0 25 2q10 0 19.5 3t15.5 5q20 6 32 19q13 12 13 36q0 9 -4 13q0 6 -15 28q-3 8 -8 18t-9 16.5t-11 17t-17 22.5l-55 80l-39 59l-192 271
q-21 -29 -40 -52t-42 -47l-86 -102l-84 -102l-74 -97l-53 -79q-5 -10 -9.5 -23.5t-7.5 -24.5q0 -20 11 -30l32 -21l49 -12l66 -2v-39h-487v41q26 0 51.5 5.5t50.5 16.5q46 21 90 68l59 72l48 53l368 440l-102 140l-103 143l-100 135l-90 115l-74 84q-13 14 -24.5 22.5
t-24.5 16.5l-49 14l-78 4v43h649z" />
    <glyph glyph-name="I" unicode="I" horiz-adv-x="1708" 
d="M264 1268q-12 38 -37.5 58.5t-69 32t-100.5 11.5v43h660v-41q-57 0 -107 -12q-22 -5 -37.5 -11.5t-27.5 -17.5q-18 -14 -37 -61q-4 -19 -7 -47t-3 -56v-811l712 893q0 29 -14 51q-6 11 -14.5 20.5t-20.5 16.5q-20 13 -69 25l-101 8v43h660v-41q-57 0 -107 -12
q-22 -5 -37.5 -11.5t-27.5 -17.5q-18 -14 -37 -61q-4 -19 -7 -47t-3 -56v-923q0 -36 2 -62t8 -45q12 -35 37 -59q26 -19 67 -31l105 -8v-39h-660v41l107 6q41 6 63 27q10 8 18.5 23.5t16.5 37.5q7 24 10.5 50t3.5 57v856l-712 -891q0 -40 12 -78q7 -17 14.5 -28.5
t20.5 -22.5q22 -19 67 -31l105 -8v-39h-660v41l107 6q41 6 63 27q10 8 18.5 23.5t16.5 37.5q7 24 10.5 50t3.5 57v927q0 55 -12 99z" />
    <glyph glyph-name="J" unicode="J" horiz-adv-x="909" 
d="M412 1268q-13 38 -37 59q-15 10 -30.5 17.5t-39.5 13.5q-44 12 -100 12v43h659v-41q-56 0 -106 -12q-43 -9 -66 -29q-17 -14 -37 -61q-4 -19 -7 -47t-3 -56v-745q0 -56 -5 -101.5t-17 -82.5q-10 -39 -24.5 -74t-34.5 -66.5t-47 -54.5t-64 -43q-35 -15 -77 -24t-93 -9
q-25 0 -46.5 2t-41.5 8q-41 8 -53 11.5t-43 20t-58 57.5q-9 18 -14 37t-7 42l7 33l18 29l27 16l37 6l45 -6l32 -18l13 -15l14 -16l12 -22l13 -23l20 -43l18 -27l21 -14l35 -4q12 0 23 2.5t20.5 8t19.5 19.5q7 9 13 19l12 64l4 94v921q0 55 -12 99z" />
    <glyph glyph-name="K" unicode="K" horiz-adv-x="1593" 
d="M264 1268q-12 38 -37.5 58.5t-69 32t-100.5 11.5v43h660v-41q-57 0 -107 -12q-22 -5 -37.5 -11.5t-27.5 -17.5q-18 -14 -37 -61q-4 -19 -7 -47t-3 -56v-432h32l433 434l43 43l28 35l15 27l6 24q0 14 -2 22.5t-9 14.5q-6 12 -32 21l-45 10l-54 4v43h555v-41
q-53 0 -112 -18q-30 -9 -53.5 -19t-49.5 -28l-53 -41l-55 -45l-133 -129l-287 -291l618 -617l64 -63l55 -41l51 -27l56 -14v-39h-641v41h63q21 0 29 1.5t24 6.5q19 0 32.5 14t15.5 29l-5 14l-8 19l-14 20l-18 23l-508 506h-41v-430q0 -36 2 -62t8 -45q12 -35 37 -59
q26 -19 67 -31l105 -8v-39h-660v41l107 6q41 6 63 27q10 8 18.5 23.5t16.5 37.5q7 24 10.5 50t3.5 57v927q0 55 -12 99z" />
    <glyph glyph-name="L" unicode="L" horiz-adv-x="1479" 
d="M969 1241q-3 14 -10.5 26t-24 27.5t-65 28t-115.5 12.5q-51 0 -82 -3.5t-58 -12.5q-47 -13 -67 -41q-9 -13 -17 -39t-14 -70l-8 -204q0 -344 -16 -508q0 -84 -13 -164q-6 -35 -14 -67.5t-21 -65.5q-29 -97 -90 -146q-29 -24 -62 -35.5t-75 -11.5q-49 0 -88 12.5t-61 32
t-37 49.5q-13 34 -13 64q0 61 27 93t84 32q26 0 45 -8q16 -5 35 -21q5 -5 11 -15l11 -22l9 -43q0 -37 12 -55t37 -18q11 0 19 3.5t18 12.5q16 16 39 59l20 80l8 84l8 137l9 150l4 176l2 223v31v25q0 51 -2 86.5t-8 60.5q-4 41 -10.5 66t-18.5 43q-8 14 -25 25.5t-43 21.5
q-42 18 -112 18v43h1224v-41q-56 0 -106 -12q-43 -9 -66 -29q-17 -14 -37 -61q-4 -19 -7 -47t-3 -56v-923q0 -36 2 -62t8 -45q13 -35 37 -59q14 -10 29.5 -17.5t38.5 -13.5l104 -8v-39h-659v41l106 6q40 6 64 27q18 15 35 61q7 24 10.5 50t3.5 57v925q0 38 -12 74z" />
    <glyph glyph-name="M" unicode="M" horiz-adv-x="1933" 
d="M465 1413l508 -1077l506 1077h409v-41q-53 0 -100 -12q-37 -6 -64 -33q-7 -7 -15 -23.5t-17 -37.5l-9 -41l-2 -58v-923q0 -37 2 -61.5t9 -43.5q12 -34 32 -59q12 -10 26.5 -17.5t35.5 -13.5q20 -4 46.5 -7t55.5 -3v-39h-622v41q64 0 101.5 8.5t59.5 30.5q9 8 17.5 24.5
t15.5 36.5q13 44 13 101v952l-545 -1194h-35l-545 1147l-4 -903q0 -37 2 -62t8 -43q11 -31 33 -59q23 -19 62 -31q47 -10 102 -10v-39h-506v41q65 0 102.5 8.5t59.5 30.5q9 9 16 22t17 39q12 41 12 101v927q0 33 -2 57.5t-8 43.5q-9 35 -31 57q-17 17 -57 29l-52 12l-57 2
v43h420z" />
    <glyph glyph-name="N" unicode="N" horiz-adv-x="1708" 
d="M496 139q13 -37 36 -61q14 -10 29.5 -17.5t38.5 -13.5l105 -8v-39h-660v41l107 6q41 6 63 27q20 17 35 61q7 24 10.5 50t3.5 57v927q0 55 -11.5 95t-37.5 63q-26 20 -70 31q-42 12 -100 12v43h660v-41q-57 0 -107 -12q-43 -9 -66 -29q-17 -14 -36 -61q-5 -20 -8 -46.5
t-3 -56.5v-399h738v401q0 57 -12.5 97t-36.5 61q-15 10 -30.5 17.5t-39.5 13.5q-44 12 -100 12v43h659v-41q-57 0 -107 -12q-22 -5 -37.5 -11.5t-27.5 -17.5q-19 -16 -37 -61q-4 -19 -7 -47t-3 -56v-923q0 -36 2 -62t8 -44t14.5 -32t22.5 -28q26 -19 68 -31l104 -8v-39h-659
v41l106 6q40 6 64 27q18 16 34 61q7 24 11 49.5t4 57.5v440h-738v-438q0 -37 2 -61.5t9 -43.5z" />
    <glyph glyph-name="O" unicode="O" horiz-adv-x="1708" 
d="M1319 977q-31 110 -92 202.5t-155.5 140.5t-217.5 48q-63 0 -116.5 -11t-102.5 -36q-93 -46 -156 -139q-58 -90 -92 -207q-15 -57 -23 -120t-8 -132q0 -153 26.5 -269t85.5 -213.5t157 -152.5q40 -20 102 -35q59 -12 127 -12t125 11t104 36q91 49 152 145q54 97 86 224
q15 62 23 127.5t8 138.5q0 140 -33 254zM1548 401q-47 -127 -157 -229q-105 -99 -242 -154q-66 -23 -142.5 -37t-152.5 -14q-157 0 -295 49q-68 25 -127.5 62t-114.5 90q-102 101 -157 231q-26 65 -40 138t-14 155q0 165 52 301.5t155 239t242 158.5q68 26 143 39.5
t156 13.5q82 0 156 -12q40 -8 72.5 -17t68.5 -24q133 -49 238 -154q99 -100 156 -239t57 -306q0 -81 -13 -153t-41 -138z" />
    <glyph glyph-name="P" unicode="P" horiz-adv-x="1708" 
d="M264 1268q-12 38 -37.5 58.5t-69 32t-100.5 11.5v43h1594v-41q-57 0 -107 -12q-22 -5 -37.5 -11.5t-27.5 -17.5q-18 -14 -37 -61q-4 -19 -7 -47t-3 -56v-923q0 -36 2 -62t8 -45q12 -35 37 -59q26 -19 67 -31l105 -8v-39h-660v41l107 6q41 6 63 27q10 8 18.5 23.5
t16.5 37.5q7 24 10.5 50t3.5 57v934q0 19 -2 35t-8 30q-9 28 -35 47q-22 19 -57 27q-15 4 -36 7t-42 3l-350 2q-42 0 -80 -12q-16 -3 -29.5 -8t-25.5 -15q-22 -15 -37 -49q-4 -11 -8 -31l-2 -38v-930q0 -36 2 -62t8 -45q12 -35 37 -59q26 -19 67 -31l105 -8v-39h-660v41
l107 6q41 6 63 27q10 8 18.5 23.5t16.5 37.5q7 24 10.5 50t3.5 57v927q0 55 -12 99z" />
    <glyph glyph-name="Q" unicode="Q" horiz-adv-x="2048" 
d="M1182 106l18 -18l39 -12l74 -2q101 0 177 25t118 73.5t64 104.5t22 118q0 40 -6 70t-23 59q-24 55 -79 97.5t-161 66.5q-55 12 -114 17.5t-133 5.5v-576q0 -8 0.5 -15t3.5 -14zM946 1239q-6 28 -33 53q-15 19 -60 31t-103 12q-51 0 -82 -3.5t-58 -12.5q-47 -13 -67 -41
q-19 -24 -31 -109l-8 -204q0 -347 -17 -508q0 -90 -12 -164q-6 -35 -14 -67.5t-21 -65.5q-29 -97 -90 -146q-29 -24 -62 -35.5t-75 -11.5q-49 0 -87.5 12.5t-62.5 32.5q-21 20 -36 49q-13 30 -13 64q0 61 27 93t84 32q26 0 45 -8q16 -5 35 -21q5 -5 11 -15l11 -22l9 -43
q0 -37 12 -55t37 -18q11 0 19 3.5t18 12.5q17 17 38 59l21 80l8 84l8 137l9 150l4 176l2 223v31v25q0 51 -2 86t-9 61q0 36 -7.5 63t-20.5 46q-18 27 -65 46t-115 19v43h1204v-41q-57 0 -107 -12q-22 -5 -37.5 -11.5t-27.5 -17.5q-18 -14 -37 -61q-4 -19 -7 -47t-3 -56v-379
h174q68 0 125 -5t104 -17q98 -17 184 -61q82 -41 124 -118t42 -194q0 -110 -39 -184q-18 -36 -46.5 -67.5t-67.5 -55.5q-31 -19 -73 -36q-34 -14 -85 -30l-82 -14q-44 -6 -86 -6h-715v41l107 6q41 6 63 27q10 8 18.5 23.5t16.5 37.5q7 24 10.5 50t3.5 57v925q0 47 -10 72z
" />
    <glyph glyph-name="R" unicode="R" horiz-adv-x="1251" 
d="M496 139q13 -37 36 -61q14 -10 29.5 -17.5t38.5 -13.5l105 -8v-39h-660v41l107 6q41 6 63 27q20 17 35 61q7 24 10.5 50t3.5 57v927q0 55 -11.5 95t-37.5 63q-26 20 -70 31q-42 12 -100 12v43h635q66 0 119 -6q29 -3 53 -8t51 -15q49 -12 87 -29.5t75 -43.5
q65 -50 98 -117q17 -38 25 -70q2 -12 5 -37t3 -43q0 -54 -9 -97.5t-30 -84.5q-35 -72 -113 -127q-37 -25 -79.5 -43t-96.5 -30q-20 -5 -50.5 -9.5t-49.5 -7.5q-56 -6 -117 -6l-166 2v-397q0 -37 2 -61.5t9 -43.5zM571 717h68q35 0 97.5 16.5t115.5 52.5q49 37 80 101
q13 36 19.5 72t6.5 77q0 38 -5 68.5t-17 56.5q-18 56 -62 92q-19 17 -44 31.5t-60 28.5q-61 22 -125 22l-94 -6q-35 -6 -41.5 -12.5t-20.5 -46.5l-4 -88v-465h86z" />
    <glyph glyph-name="S" unicode="S" horiz-adv-x="1479" 
d="M1382 975q-9 44 -24.5 83t-38.5 77q-43 70 -107 125q-30 25 -67 45.5t-78 33.5q-81 29 -170 29q-65 0 -122 -11t-107 -36q-95 -42 -170 -141q-67 -92 -107 -211q-18 -61 -26.5 -120.5t-8.5 -125.5q0 -147 38 -274.5t109.5 -219t172.5 -143.5q50 -22 106.5 -33.5
t116.5 -11.5h37h25q15 2 20 2q28 0 74 14l73 21q26 9 64 33q29 15 58 36t61 50q41 35 114 122l35 -30q-66 -91 -139 -158q-34 -31 -70 -55.5t-75 -42.5q-74 -31 -151.5 -48.5t-143.5 -17.5q-166 0 -301 45q-67 21 -129 56t-117.5 82.5t-98 104.5t-73.5 126q-56 136 -56 309
q0 84 13 158t41 141q56 133 166 240q55 52 116 92t131 68q139 55 304 55h57l39 -8l100 -19q39 -6 57 -14q19 -3 48 -14l108 -25q25 0 38 13.5t24 52.5l41 2l45 -457h-52z" />
    <glyph glyph-name="T" unicode="T" horiz-adv-x="1368" 
d="M569 1286q0 15 -12 27q-5 7 -32 14.5t-68 7.5q-105 0 -183 -12q-36 -6 -60 -14t-42 -21q-32 -19 -61 -82q-11 -26 -22 -64.5t-23 -90.5l-35 2l12 360h1282l12 -360h-34q-21 97 -46 149q-12 30 -26 51t-33 35q-25 18 -102 33q-40 6 -86 10t-99 4q-20 0 -38 -0.5t-29 -3.5
q-19 0 -31 -12q-5 -5 -14 -31l-4 -53v-991q0 -36 2 -62t8 -45q12 -35 37 -59q26 -19 67 -31l105 -8v-39h-660v41l107 6q41 6 63 27q10 8 18.5 23.5t16.5 37.5q7 24 10.5 50t3.5 57v995v16q0 22 -4 33z" />
    <glyph glyph-name="U" unicode="U" horiz-adv-x="1593" 
d="M240 1274q-16 17 -30.5 29.5t-25.5 18.5t-36 16q-15 6 -29 12l-86 20v43h669v-41l-77 -6h-18t-19 -2q-5 -2 -13 -4.5t-18.5 -5.5t-26.5 -19q-12 -12 -12 -35l2 -22l12 -23l21 -32l31 -45l356 -535l264 528l17 33l20 41l14 37l7 23q0 10 -13 26q-12 12 -41 23l-51 12
l-47 4v43h467v-41h-26t-23 -2q-14 0 -39 -14q-19 -6 -33 -14.5t-31 -22.5q-16 -16 -29 -32q-16 -20 -38 -52l-78 -133l-446 -850l-50 -88q-24 -46 -41 -66q-19 -29 -35 -47t-40 -37q-31 -18 -78 -32l-43 -11l-47 -4q-48 0 -86 13q-19 6 -32.5 12t-33.5 18q-26 21 -45 51
q-12 29 -12 60q0 25 6 43q3 8 8.5 16t16.5 19q17 17 38 26l41 8q34 0 63 -19t50 -56q17 -36 41 -58q17 -17 41 -20l20 2l19 10l18 25l35 51l53 92l84 156l-518 774z" />
    <glyph glyph-name="V" unicode="V" horiz-adv-x="1479" 
d="M659 768q84 0 150.5 12t119.5 45t81 93q13 30 19.5 64t6.5 75q0 49 -6.5 84t-21.5 63q-13 28 -33 48t-51 32q-56 24 -134.5 37.5t-181.5 13.5q-16 0 -30.5 -0.5t-24.5 -3.5l-39 -12q-3 -2 -22 -25q-7 -14 -7 -39v-487h174zM252 1268q-11 36 -37 59q-26 20 -70 31
q-42 12 -100 12v43h723q93 0 182 -24q89 -20 160 -62q37 -21 64.5 -47t46.5 -61q36 -65 36 -156q0 -63 -19 -111.5t-60 -91.5q-39 -37 -95 -69q-5 -4 -18.5 -9t-20.5 -8l-77 -24q45 -11 84 -24.5t69 -29.5q60 -23 113 -69q23 -21 42.5 -47.5t33.5 -57.5q24 -59 24 -137
q0 -54 -9 -94.5t-32 -77.5q-33 -70 -114 -119q-36 -21 -80.5 -39t-93.5 -32q-98 -23 -201 -23h-758v41l107 6q41 6 63 27q20 17 35 61q7 24 10.5 50t3.5 57v927q0 55 -12 99zM492 113q6 -17 22 -25l37 -12l57 -2l103 2h65q35 0 94 18q32 8 57.5 20t53.5 33q49 35 78 101
q24 62 24 141q0 40 -6.5 70.5t-21.5 60.5q-26 57 -86 92q-30 19 -59 32t-70 26l-72 14q-38 6 -80 6l-203 2v-536z" />
    <glyph glyph-name="W" unicode="W" horiz-adv-x="2048" 
d="M1239 127q0 -20 12 -35l31 -14l61 -4l43 2q89 0 142 20q54 25 94 74q31 41 51 98q9 26 15 56.5t6 58.5q0 41 -5 74.5t-18 60.5q-21 55 -63 88q-18 14 -43.5 27.5t-52.5 24.5t-58 16.5t-63 5.5l-156 2v-487q0 -21 0.5 -39.5t3.5 -28.5zM264 1268q-12 38 -37.5 58.5t-69 32
t-100.5 11.5v43h629v-41q-25 0 -45 -2t-39 -7.5t-34 -13t-27 -20.5q-8 -7 -16 -22t-17 -39l-8 -43l-2 -58v-399h516v401q0 33 -2 57.5t-8 43.5q-11 37 -30.5 56.5t-62.5 31.5q-36 12 -86 12v43h629v-41q-58 0 -106 -12q-45 -9 -66 -29q-19 -16 -37 -61q-4 -19 -7 -47t-3 -56
v-399h158q138 0 243 -31q104 -24 166 -80q31 -27 54.5 -58t39.5 -69q35 -68 35 -147q0 -42 -6.5 -75t-21.5 -66q-26 -63 -86 -123q-54 -57 -148 -90q-90 -29 -203 -29h-641v41h58l30 8q36 6 56 29q9 8 17.5 23.5t17.5 37.5q4 19 7 47t3 56v440h-516v-438q0 -37 2 -62t8 -43
q13 -34 33 -59q12 -10 25 -17.5t32 -13.5q19 -4 42 -7t46 -3v-39h-629v41l107 6q41 6 63 27q10 8 18.5 23.5t16.5 37.5q7 24 10.5 50t3.5 57v927q0 55 -12 99z" />
    <glyph glyph-name="X" unicode="X" horiz-adv-x="1708" 
d="M57 0v41l107 6q41 6 63 27q10 8 18.5 23.5t16.5 37.5q7 24 10.5 50t3.5 57v927q0 55 -12 99q-12 38 -37.5 58.5t-69 32t-100.5 11.5v43h660v-41q-57 0 -107 -12q-22 -5 -37.5 -11.5t-27.5 -17.5q-18 -14 -37 -61q-4 -19 -7 -47t-3 -56v-927q0 -27 2 -46.5t9.5 -41.5
t27.5 -41q15 -14 65 -29l107 -8l290 2l107 6q22 5 37.5 11.5t25.5 17.5q19 18 31 49q4 15 7 35.5t3 42.5v931q0 55 -12 99q-12 38 -37.5 58.5t-69 32t-100.5 11.5v43h660v-41q-57 0 -107 -12q-22 -5 -37.5 -11.5t-27.5 -17.5q-18 -14 -37 -61q-4 -19 -7 -47t-3 -56v-923
q0 -36 2 -62t8 -45q12 -35 37 -59q26 -19 67 -31l105 -8v-39h-699v-285h-196v285h-699z" />
    <glyph glyph-name="Y" unicode="Y" horiz-adv-x="1139" 
d="M133 418q30 -63 48 -96q10 -18 34 -56q21 -33 45 -63.5t51 -55.5q55 -50 117 -79q35 -13 69 -20t70 -7q62 0 105 14q43 11 82 44t61 79q12 26 17.5 47.5t5.5 46.5q0 32 -3.5 53t-13.5 44q-7 23 -16.5 39t-28.5 34q-12 14 -38 35t-54 41q-67 47 -164 101.5t-168 103.5
q-65 51 -121 102q-50 51 -73 111t-23 125q0 48 6 84t23 74q29 66 86 118q29 26 60.5 44t74.5 34q81 29 162 29h53l53 -10q30 -3 74 -23l78 -25l49 -8q17 0 25 6q7 8 12 27v10l-2 9l41 2l47 -422h-45q-5 20 -10 33.5t-15 35.5q-6 18 -14 34t-21 34q-38 71 -84 117
q-40 46 -110 77q-8 4 -22 8t-30.5 8.5t-39 7.5t-41.5 3q-29 0 -49.5 -3.5t-42.5 -12.5q-33 -14 -72 -49q-32 -32 -49 -70q-7 -19 -12 -41.5t-5 -44.5q0 -53 24 -97.5t83 -86.5l123 -82l153 -93q79 -45 148 -98q36 -24 59 -47q20 -16 51 -47q41 -47 66 -107q11 -26 18 -58
t7 -66q0 -42 -7.5 -80.5t-24 -74t-38 -66t-55.5 -64.5q-56 -50 -137 -81.5t-175 -31.5l-75 6q-21 0 -37 4q-11 0 -21.5 2t-27.5 9l-91 16l-90 21l-20 -5l-17 -8l-14 -12l-4 -20h-39l-82 438h41z" />
    <glyph glyph-name="Z" unicode="Z" horiz-adv-x="1366" 
d="M664 780q86 12 149.5 41t97.5 90q16 31 25 70q3 21 5.5 49.5t2.5 44.5q0 70 -20 117q-10 26 -24.5 49.5t-35.5 44.5q-17 19 -41.5 34.5t-56.5 27.5q-28 9 -62 14.5t-65 5.5q-78 0 -147 -25q-68 -21 -132 -73q-28 -25 -51.5 -54t-50.5 -69q-40 -64 -86 -184l-41 2l35 481
h39l6 -39l8 -29q3 -13 17 -18l30 -6l113 32l106 31l107 19l110 8q62 0 108 -6.5t91 -22.5q82 -24 141 -79t93 -119q30 -62 30 -136q0 -31 -5 -59t-17 -55q-10 -26 -25.5 -50t-40.5 -49q-44 -47 -114 -80q-66 -29 -162 -43q52 0 91 -6.5t77 -21.5q42 -13 74.5 -31.5
t60.5 -46.5q55 -49 86 -114t31 -136q0 -79 -35.5 -158.5t-106.5 -141t-172 -92t-237 -30.5q-102 0 -190 18.5t-165 55.5q-31 16 -63.5 38.5t-73.5 53.5q-18 14 -33 26q-19 15 -34.5 29.5t-29 28.5t-32.5 37l62 57q48 -56 102 -98q23 -17 54.5 -37.5t66.5 -40.5
q30 -14 62 -26.5t69 -24.5l65 -12l72 -4q93 0 155 20t117 68q53 42 81 104.5t28 128.5q0 99 -37 160q-30 61 -96.5 84.5t-171.5 42.5l-94 10l-105 4v78q98 0 185 12z" />
    <glyph glyph-name="bracketleft" unicode="[" horiz-adv-x="2048" 
d="M264 1268q-12 38 -37.5 58.5t-69 32t-100.5 11.5v43h598v-41q-26 0 -45.5 -2t-34.5 -8q-24 -5 -47 -25q-7 -7 -22 -45l-8 -69v-998q0 -24 2 -42.5t7.5 -31.5t14.5 -24.5t21 -20.5q21 -15 63 -24l101 -8q59 0 100 6t61 26q18 12 33 44q12 30 12 73v1002q0 45 -8 69
q-3 15 -8.5 26.5t-13.5 18.5q-7 11 -47 23l-80 8v43h536v-41q-26 0 -45.5 -2t-34.5 -8q-24 -5 -47 -25q-7 -7 -22 -45l-8 -69v-998q0 -24 2 -42.5t7.5 -31.5t14.5 -24.5t21 -20.5q22 -15 63 -24l98 -8q60 0 99 6t61 22.5t37 47.5q12 30 12 73v1002q0 45 -8 69
q-3 15 -8.5 26.5t-13.5 18.5q-9 11 -47 23l-80 8v43h598v-41q-57 0 -107 -12q-21 -4 -37 -11t-28 -18q-18 -14 -37 -61q-4 -19 -7 -47t-3 -56v-923q0 -36 2 -62t8 -45q12 -35 37 -59q26 -19 67 -31l105 -8v-39h-1934v41l107 6q41 6 63 27q10 8 18.5 23.5t16.5 37.5
q7 24 10.5 50t3.5 57v927q0 55 -12 99z" />
    <glyph glyph-name="backslash" unicode="\" horiz-adv-x="1251" 
d="M264 1268q-12 38 -37.5 58.5t-69 32t-100.5 11.5v43h1133l39 -371h-47q-17 65 -43 125q-13 29 -27.5 51.5t-32.5 38.5q-26 31 -74.5 49.5t-107.5 18.5l-307 2q-32 0 -51 -8q-17 -5 -29 -19l-10 -43l-2 -75v-938q0 -59 12 -101t37 -65q26 -20 69 -31l115 -8v-39h-674v41
l107 6q41 6 63 27q10 8 18.5 23.5t16.5 37.5q7 24 10.5 50t3.5 57v927q0 55 -12 99zM727 1845l29 21l28 14q14 6 29 6l29 -6q12 0 20 -14l15 -23l4 -26q0 -14 -3.5 -23.5t-13.5 -19.5q-8 -15 -43 -39l-319 -199h-82l280 285z" />
    <glyph glyph-name="bracketright" unicode="]" horiz-adv-x="1593" 
d="M264 1268q-12 38 -37.5 58.5t-69 32t-100.5 11.5v43h660v-41q-57 0 -107 -12q-22 -5 -37.5 -11.5t-27.5 -17.5q-18 -14 -37 -61q-4 -19 -7 -47t-3 -56v-432h32l433 434l43 43l28 35l15 27l6 24q0 14 -2 22.5t-9 14.5q-6 12 -32 21l-45 10l-54 4v43h555v-41
q-53 0 -112 -18q-30 -9 -53.5 -19t-49.5 -28l-53 -41l-55 -45l-133 -129l-287 -291l618 -617l64 -63l55 -41l51 -27l56 -14v-39h-641v41h63q21 0 29 1.5t24 6.5q19 0 32.5 14t15.5 29l-5 14l-8 19l-14 20l-18 23l-508 506h-41v-430q0 -36 2 -62t8 -45q12 -35 37 -59
q26 -19 67 -31l105 -8v-39h-660v41l107 6q41 6 63 27q10 8 18.5 23.5t16.5 37.5q7 24 10.5 50t3.5 57v927q0 55 -12 99zM958 1845l29 21l29 14q12 6 28 6l29 -6q11 0 21 -14l14 -23l4 -26q0 -14 -3.5 -24t-12.5 -19q-7 -13 -43 -39l-320 -199h-82l281 285z" />
    <glyph glyph-name="asciicircum" unicode="^" horiz-adv-x="1593" 
d="M956 631l-96 -27q-45 -13 -96 -18l-109 -4h-45h-28q-15 2 -22 2.5t-23 3.5t-41 10q-72 17 -123.5 51.5t-81.5 95.5q-13 36 -20 71t-7 73v280q0 55 -11.5 95t-37.5 63q-26 20 -70 31q-42 12 -100 12v43h629v-41q-26 0 -46 -2t-38 -8q-38 -9 -62 -33q-7 -7 -15 -23.5
t-17 -37.5l-9 -43l-2 -58v-260q0 -116 64 -180q65 -59 196 -59l84 2h14q7 0 19 2q11 0 17 1.5t22 6.5l76 18l96 31v440q0 33 -2 57.5t-8 43.5q-9 37 -29.5 56.5t-60.5 31.5t-88 12v43h628v-41q-56 0 -106 -12q-43 -9 -66 -29q-17 -14 -36 -61q-5 -20 -8 -46.5t-3 -56.5v-923
q0 -36 2 -61.5t9 -45.5q12 -34 36 -59q14 -10 29.5 -17.5t38.5 -13.5l104 -8v-39h-659v41l107 6q41 6 63 27q20 17 35 61q7 24 10.5 50t3.5 57v432z" />
    <glyph glyph-name="underscore" unicode="_" 
d="M1042 -442h-1059v84h1059v-84z" />
    <glyph glyph-name="grave" unicode="`" horiz-adv-x="1593" 
d="M690 453l-18 -15l-23 -20l-24 -25l-228 -246l-24 -28l-19 -23l-12 -16l-4 -12l4 -15l14 -8l29 -4l45 -2v-39h-420v41h39q6 1 13.5 2.5t11.5 7.5l20 17l29 30l409 443l-376 331l-33 23l-23 14l-26 6l-41 5v43h393v-41h-70q-10 0 -17 -2t-15 -9q-13 -6 -13 -28
q0 -14 15 -41q6 -9 24 -31q12 -15 25 -29l114 -112l218 -193v324q0 19 -2 33t-9 24q-6 25 -24 37q-9 6 -21 10.5t-26 7.5q-27 7 -70 7v43h483v-41q-43 0 -69 -9q-25 -5 -47 -18q-7 -5 -14 -15t-13 -22l-8 -59v-320l223 201l115 108l43 54l14 41q0 16 -8 23t-37 14l-70 2v41
h394v-41q-13 0 -25 -0.5t-20 -3.5q-21 0 -25 -5l-23 -14l-30 -29l-377 -329l409 -441l27 -30l21 -19l24 -10l41 -2v-39h-420v41l41 -2l29 2q11 3 16.5 8.5t5.5 18.5q0 6 -4 10q0 5 -12 14l-43 53l-227 250l-19 17l-24 22l-25 19l-14 8v-299q0 -35 6 -61.5t26 -39.5t48 -18
l71 -4v-39h-483v41l70 2q14 4 20.5 6t26.5 12q15 14 24 37q6 16 8.5 29.5t2.5 32.5v303z" />
    <glyph glyph-name="a" unicode="a" 
d="M475 481q-34 -15 -62 -29q-16 -8 -51 -26q-42 -24 -65 -71t-23 -101q0 -25 2 -43t9.5 -35.5t13.5 -27t18 -21.5q20 -16 29.5 -22t26.5 -15q37 -10 76 -10h13q19 0 30 4l45 14l41 21q11 6 17.5 10.5t12.5 11.5l21 19l12 16l6 17l2 22v344zM831 137q0 -17 9 -31l18 -20
l31 -6l20 2l19 10l18 14l19 21l24 -21q-35 -58 -94 -96q-56 -30 -121 -30q-15 0 -27 2t-23 8t-18.5 11t-17.5 15q-14 18 -26 45l-9 52l-84 -56q-36 -24 -77 -43q-38 -15 -82 -24l-60 -8q-18 0 -26 -2q-52 0 -93 14q-23 7 -39 16.5t-32.5 27t-27 34.5t-21.5 43q-17 40 -17 88
q0 73 30.5 131.5t98.5 103.5q59 38 164 80q61 25 121 46t141 46v109q0 31 -2 53.5t-8 38.5q-6 40 -29 61q-16 20 -51 34t-84 14l-53 -7q-26 -3 -53 -14q-13 -5 -22 -11t-14 -15t-7.5 -19.5t-3.5 -22.5l4 -65l-7 -47l-16 -35l-31 -22l-45 -7l-39 7q-12 6 -26 20l-17 33l-4 41
q0 53 27 94q12 18 34 36t52 36q28 15 56 25.5t63 19.5l59 10l62 4q22 0 42.5 -0.5t48 -3.5t62.5 -19q62 -17 103 -61q35 -39 59 -104q9 -32 14.5 -71t5.5 -71v-473z" />
    <glyph glyph-name="b" unicode="b" horiz-adv-x="1139" 
d="M1006 1360q-7 -37 -31 -68q-18 -30 -45 -51q-8 -6 -24 -15.5t-29 -15.5l-76 -16l-111 -6l-121 -6q-62 0 -106 -8q-25 -4 -47.5 -14.5t-48.5 -31.5q-48 -35 -95 -106q-41 -66 -65 -145l-17 -72q-6 -38 -6 -80l84 102q20 23 39.5 42.5t42.5 37.5q38 29 99 56q54 18 118 18
q60 0 111.5 -8t97.5 -27q94 -33 154 -102q66 -69 98.5 -165t32.5 -204q0 -102 -35.5 -191.5t-104.5 -159t-161 -110.5q-43 -16 -91.5 -25t-101.5 -9q-85 0 -166 30q-36 15 -74.5 42t-76.5 63q-74 68 -111 180t-37 258q0 72 8 144t23 143q32 139 92.5 257.5t159 180
t238.5 61.5l198 2l64 2q10 2 23 6t22 9q12 9 25.5 31.5t19.5 54.5l41 2q0 -29 -2 -49.5t-8 -36.5zM715 66q26 14 44.5 32.5t37.5 48.5q31 54 51 119l12 62l4 67q0 56 -4 98.5t-15 95t-23.5 94t-28.5 77.5q-31 79 -95 119q-57 41 -141 41q-70 0 -123 -27q-49 -24 -86 -82
q-14 -26 -27.5 -58t-21.5 -63l-12 -65l-4 -78q0 -95 20 -182q3 -18 7 -39.5t16 -46.5q13 -36 36 -80q35 -74 101 -121q67 -39 143 -39q57 0 109 27z" />
    <glyph glyph-name="c" unicode="c" horiz-adv-x="1139" 
d="M184 858q-6 25 -24 37q-9 6 -21 10.5t-26 7.5q-27 7 -70 7v43h473v-41q-26 0 -36.5 -1.5t-28.5 -7.5q-22 -5 -41 -18q-7 -5 -14 -15t-13 -22l-8 -59v-602l6 -66q3 -12 8 -22t14 -19l37 -22l58 -9l143 2h25q18 0 36 5t33 20q11 14 21 43l8 66v606q0 18 -2 32t-8 25
q-6 26 -23 37q-15 12 -43 18q-22 7 -65 7v43h473v-41q-43 0 -70 -9q-25 -6 -47 -18q-8 -6 -12.5 -12.5t-14.5 -24.5l-8 -59v-637q0 -35 6 -61t25.5 -39t48.5 -19l72 -4v-361h-52l-61 187q-24 67 -41 90q-4 8 -14 16t-29 19q-27 10 -65 10h-791v41l70 2q14 4 20.5 6t26.5 12
q15 14 24 37q6 16 8.5 29.5t2.5 32.5v641q0 19 -2 33t-9 24z" />
    <glyph glyph-name="d" unicode="d" 
d="M565 68q24 6 41 28l21 43l8 60v592l-6 47q-3 8 -7 15t-13.5 18t-37.5 20l-61 8h-41q-7 0 -15.5 -0.5t-33.5 -7.5q-30 -6 -49 -18.5t-27 -41.5l-8 -69q0 -15 -1 -54t-1 -63q0 -19 -1 -65t-1 -74v-24q0 -40 -4 -72q0 -24 -2 -46t-9 -47q0 -12 -0.5 -26t-7.5 -41
q-5 -32 -7 -41t-8 -26.5t-10.5 -32.5t-13.5 -33q-12 -31 -26 -58l260 2zM104 47q18 6 41 27q20 16 41 57l13 33l14 47l16 94l9 98l4 144l2 229q0 49 -8 75.5t-21 39.5q-6 6 -16 10t-33 10l-88 9v43h889v-41q-43 0 -70 -9q-25 -6 -47 -18q-14 -11 -27 -37l-8 -59v-654l6 -55
q6 -19 21 -31l37 -16l61 -4v-363h-51q-18 96 -45 162q-12 33 -22.5 55.5t-24.5 40.5q-26 32 -58 50q-32 16 -73 16h-351q-37 0 -69 -13.5t-60 -45.5q-24 -31 -49 -101q-21 -68 -43 -164h-51v365z" />
    <glyph glyph-name="e" unicode="e" 
d="M690 760q-12 49 -37 86t-69 55.5t-101 18.5q-53 0 -92 -23q-40 -17 -82 -63q-20 -24 -32.5 -44t-21.5 -44t-13 -45.5t-4 -49.5l467 2q0 60 -15 107zM231 584v-15v-20v-8v-52q2 -6 4.5 -18.5t4.5 -21.5q0 -11 1.5 -17t6.5 -20l16 -58q12 -30 39 -75q12 -22 28.5 -40.5
t39.5 -37.5q14 -12 38.5 -26t47.5 -25l49 -13l57 -4q61 0 111 12q25 7 48 18t48 30q41 28 80 69q16 17 34 39t34 47l34 -20q-14 -33 -34.5 -68t-45.5 -70q-44 -63 -102 -112q-49 -43 -119 -76q-64 -22 -135 -22q-97 0 -178 30.5t-141 93.5q-27 30 -49 66.5t-42 83.5
q-28 89 -28 188q0 57 6 106.5t20 94.5q19 57 39 92q11 21 24.5 44t29.5 42q53 78 141.5 119t191.5 41q46 0 80 -6t70 -23q69 -28 117 -84q47 -50 77 -125q3 -6 6 -19t11 -42q10 -45 10 -92l-668 2z" />
    <glyph glyph-name="f" unicode="f" horiz-adv-x="1593" 
d="M651 43l-51 -37q-23 -12 -55 -18l-64 -8q-57 0 -96 8q-39 6 -84 32q-72 43 -122.5 128.5t-75.5 173.5t-25 176q0 102 25 192t73.5 156.5t116.5 100.5t147 34q26 0 46.5 -2t37.5 -8q35 -6 70 -27l57 -43l27 -24l29 -29v369q0 32 -9 49q-6 18 -18 30.5t-41 22.5l-57 8
l-27 2v41q19 0 49 6l35 8l96 29l88 29l64 20v-612l55 53l55 43q14 8 31 14.5t36.5 10.5t42.5 7t46 3q40 0 75.5 -8t67.5 -27q61 -28 115 -98q23 -30 42 -68.5t36 -87.5q11 -44 19 -95.5t8 -98.5q0 -83 -24 -168t-74.5 -174t-125.5 -132.5t-180 -43.5q-25 0 -35.5 1.5
t-29.5 6.5l-54 18q-7 3 -22.5 14.5t-28.5 22.5l-55 55v-413q0 -34 6 -59t26 -38t48 -18l71 -6v-41h-483v41l70 6q14 4 20.5 6t26.5 12q15 14 24 37q6 17 8.5 29.5t2.5 30.5v415zM692 770q-4 15 -14.5 29.5t-26.5 27.5t-29.5 21.5t-33.5 17.5q-34 13 -72 13q-56 0 -102 -29
q-42 -23 -74.5 -82t-50.5 -143l-10 -82q-5 -45 -5 -92v-59t3 -49t6 -42q5 -21 10.5 -46t16.5 -52t30 -53q31 -51 72 -74q19 -11 41 -17t47 -6q50 0 84 15q19 7 33 16.5t30 28.5q26 28 45 82q5 23 10 53.5t5 54.5v391q0 43 -15 76zM899 195q12 -46 41 -78q24 -31 64 -49
q23 -7 44 -11t46 -4t46.5 5t41.5 18q35 24 69 74q15 23 27.5 52.5t24.5 71.5l12 78l4 99q0 59 -3.5 99t-12.5 82t-19.5 71.5t-28.5 60.5q-15 29 -32 47.5t-43 36.5q-45 31 -103 31q-17 0 -32 -3t-37 -10q-31 -12 -64 -39q-13 -11 -24.5 -26.5t-18.5 -34t-10.5 -36
t-3.5 -38.5v-387q0 -62 12 -110z" />
    <glyph glyph-name="g" unicode="g" horiz-adv-x="909" 
d="M184 858q-6 25 -24 37q-9 6 -21 10.5t-26 7.5q-27 7 -70 7v43h811l12 -316h-35q-20 80 -40 117q-19 44 -44 68.5t-81.5 38.5t-153.5 14l-78 -2q-25 0 -39 -9q-12 -6 -16 -10l-4 -26v-676q0 -25 1 -35.5t8.5 -32t26.5 -33.5t58 -18l88 -4v-39h-514v41l70 2q14 4 20.5 6
t26.5 12q15 14 24 37q6 16 8.5 29.5t2.5 32.5v641q0 19 -2 33t-9 24z" />
    <glyph glyph-name="h" unicode="h" 
d="M248 737q-29 44 -59 80t-56 57q-27 24 -47.5 35t-42.5 11v43h461v-41l-47 -7q-20 0 -32.5 -8t-19 -16t-6.5 -27l2 -20q3 -15 9 -21l16 -28l25 -39l94 -148l90 127l29 39l18 31l8 24l4 27l-6 25q-6 13 -16 20l-31 14l-43 5v43h375v-41q-39 0 -70 -15q-16 -6 -31.5 -14.5
t-29.5 -20.5l-58 -61l-22 -27q-14 -15 -24.5 -28.5t-20.5 -28.5l-131 -170l202 -315l64 -99l45 -61l43 -33q6 -2 22.5 -5t32.5 -5v-39h-454v41h57q26 0 37 8l16 14q6 8 6 21q0 10 -3 19.5t-13 27.5l-12 25q-7 13 -15 26t-20 29l-125 190l-141 -198q-27 -38 -45 -76l-15 -45
q0 -19 23 -33q27 -10 74 -10v-39h-336v41l57 6q17 6 47 31l43 51l60 74l196 258z" />
    <glyph glyph-name="i" unicode="i" horiz-adv-x="1139" 
d="M184 858q-6 25 -24 37q-9 6 -21 10.5t-26 7.5q-27 7 -70 7v43h483v-41q-43 0 -69 -9q-25 -5 -47 -18q-7 -5 -14 -15t-13 -22l-8 -59v-539l389 557q0 17 -2 28.5t-8 20.5q-6 19 -27 31l-47 16q-22 7 -68 7v43h484v-41q-43 0 -70 -9q-25 -6 -47 -18q-8 -6 -12.5 -12.5
t-14.5 -24.5l-8 -59v-637q0 -35 6 -61t25.5 -39t48.5 -19l72 -4v-39h-484v41l70 2q22 6 47 18q9 8 14.5 15.5t10.5 21.5q10 28 10 62v542l-389 -557q0 -27 6 -53q6 -18 29 -33l47 -16l69 -4v-39h-483v41l70 2q14 4 20.5 6t26.5 12q15 14 24 37q6 16 8.5 29.5t2.5 32.5v641
q0 19 -2 33t-9 24z" />
    <glyph glyph-name="j" unicode="j" horiz-adv-x="569" 
d="M186 784q-6 19 -20 33q-10 10 -39 21l-57 8l-27 2v41q19 0 49 6l35 8l96 29l88 29l64 20v-930v-88l-8 -59q0 -21 -1.5 -29.5t-7.5 -28.5l-14 -63q-13 -65 -39 -105q-18 -42 -53 -71l-55 -43l-45 -25l-46 -12l-51 -4q-16 0 -30 2t-24 7t-21 12t-21 18l-31 39q-3 6 -6 20
t-4 21l6 39q0 12 15 26q6 11 24 19l31 4q26 0 43.5 -12.5t25.5 -47.5l15 -47l12 -24l14 -11l25 -4q19 0 31 13q11 6 20 32l10 52l5 69v985q0 22 -1.5 30t-7.5 19zM328 1454q13 -2 34 -24q9 -7 14.5 -14.5t10.5 -20.5l8 -43q0 -25 -6 -43t-27 -37l-34 -23l-43 -8
q-24 0 -39.5 4.5t-21.5 9t-19 17.5l-23 35l-8 45q0 23 6 43q3 9 9 17q2 3 16 18q8 8 16 14t19 10l45 8q11 2 21 0t22 -8z" />
    <glyph glyph-name="k" unicode="k" horiz-adv-x="1139" 
d="M199 858q-6 24 -24.5 36.5t-47.5 18.5q-25 7 -70 7v43h484v-41q-43 0 -70 -9q-25 -6 -47 -18q-8 -6 -12.5 -12.5t-14.5 -24.5l-8 -59v-314q14 0 70 50l133 127l127 129l51 53l6 14l4 14q0 17 -7.5 23.5t-29.5 15.5l-38 7l-46 2v43h414v-41h-26q-9 0 -35 -9l-47 -16
q-11 -5 -14.5 -7t-12.5 -9l-29 -25l-88 -76l-260 -235l414 -430l35 -37l28 -21l33 -12l49 -12v-33h-465v35l56 -2h11q15 0 19 4l15 8l4 12l-15 23l-36 51l-70 78l-102 113l-97 96q-10 8 -28 20q-9 6 -23 15v-291q0 -35 6 -61t25.5 -39t48.5 -19l72 -4v-39h-484v41l70 2
q22 6 47 18q9 8 14.5 15.5t10.5 21.5q10 28 10 62v641q0 19 -2 33t-8 24z" />
    <glyph glyph-name="l" unicode="l" horiz-adv-x="1139" 
d="M918 98q6 -23 24 -37q18 -12 47 -18l72 -4v-39h-483v41l69 2q15 4 22 6.5t25 11.5q16 13 25.5 39t9.5 60v608q0 36 -8 57q-5 23 -19 35l-49 19l-75 6q-15 0 -28 -0.5t-24 -3.5l-32 -7l-25 -12l-18 -20l-15 -31l-10 -45l-6 -72l-2 -110q0 -188 -13.5 -303t-42.5 -175
q-13 -31 -28.5 -52.5t-40.5 -43.5q-44 -30 -103 -30q-18 0 -33 2t-28 8q-13 3 -27 8.5t-26 13.5q-23 18 -39 43q-12 26 -12 64l6 39l18 30l27 19l33 8q21 0 33.5 -3.5t21.5 -12.5q18 -14 31 -45l12 -37q0 -6 12 -21q7 -9 25 -16q24 0 43 37q7 15 14.5 44t13.5 60l15 105
q6 36 6 84l6 223v74v53l-10 63q-3 29 -19 49q-11 20 -51 35q-39 13 -92 13v43h891v-41q-43 0 -70 -9q-25 -6 -47 -18q-8 -6 -12.5 -13t-13.5 -24l-9 -59v-637q0 -29 1.5 -38.5t7.5 -25.5z" />
    <glyph glyph-name="m" unicode="m" horiz-adv-x="1368" 
d="M184 858q-6 25 -24 37q-9 6 -21 10.5t-26 7.5q-27 7 -70 7v43h311l342 -705l297 705h332v-41q-43 0 -70 -9q-23 -5 -47 -18q-8 -6 -12.5 -13t-13.5 -24l-8 -59v-637q0 -35 6 -61.5t26 -39.5q9 -6 21 -10.5t26 -7.5l72 -4v-39h-483v41l69 2q15 4 22 6.5t25 11.5
q16 13 25.5 39t9.5 60v618l-350 -778h-22l-347 723l-4 -561q0 -35 6 -64q8 -25 26.5 -37t47.5 -18l72 -4v-39h-379v41l70 2q14 4 20.5 6t26.5 12q15 14 24 37q6 16 8.5 29.5t2.5 32.5v641q0 19 -2 33t-9 24z" />
    <glyph glyph-name="n" unicode="n" horiz-adv-x="1139" 
d="M184 858q-6 25 -24 37q-9 6 -21 10.5t-26 7.5q-27 7 -70 7v43h473v-41q-26 0 -36.5 -1.5t-28.5 -7.5q-22 -5 -41 -18q-7 -5 -14 -15t-13 -22l-8 -59v-269h389v271q0 18 -2 32t-8 25q-6 26 -23 37q-15 12 -43 18q-22 7 -65 7v43h473v-41q-43 0 -70 -9q-25 -6 -47 -18
q-8 -6 -12.5 -12.5t-14.5 -24.5l-8 -59v-637q0 -35 6 -61t25.5 -39t48.5 -19l72 -4v-39h-473v41l63 2q26 6 43.5 19t26.5 36l8 62v295h-389v-293q0 -36 6 -62q5 -16 25 -34q16 -12 45 -21l65 -6v-39h-473v41l70 2q14 4 20.5 6t26.5 12q15 14 24 37q6 16 8.5 29.5t2.5 32.5
v641q0 19 -2 33t-9 24z" />
    <glyph glyph-name="o" unicode="o" horiz-adv-x="1139" 
d="M715 66q26 14 44.5 32.5t37.5 48.5q31 54 51 119l12 62l4 67q0 56 -4 98.5t-15.5 96t-23.5 94.5t-30 80q-34 72 -95 115q-30 20 -65.5 30.5t-77.5 10.5q-71 0 -127 -27q-49 -24 -86 -82q-32 -53 -49 -121l-12 -65q-3 -21 -4 -34t-1 -44q0 -90 21 -182q3 -18 7 -39.5
t15 -46.5q7 -18 11 -27q11 -25 26 -53q36 -75 103 -121q33 -19 69.5 -29t79.5 -10q57 0 109 27zM774 946q48 -17 85.5 -41.5t70.5 -60.5q66 -69 98.5 -165t32.5 -204q0 -102 -35.5 -191.5t-104.5 -159t-161 -110.5q-43 -16 -91.5 -25t-101.5 -9q-108 0 -193.5 33
t-156.5 105.5t-106 160.5q-15 44 -24 95.5t-9 100.5q0 110 33 194t103.5 159.5t158.5 114t194 38.5q57 0 107.5 -8t99.5 -27z" />
    <glyph glyph-name="p" unicode="p" horiz-adv-x="1139" 
d="M184 858q-6 25 -24 37q-9 6 -21 10.5t-26 7.5q-27 7 -70 7v43h1053v-41q-43 0 -70 -9q-25 -6 -47 -18q-8 -6 -12.5 -12.5t-14.5 -24.5l-8 -59v-637q0 -35 6 -61t25.5 -39t48.5 -19l72 -4v-39h-473v41l63 2q26 6 43.5 19t26.5 36l8 62v604q0 23 -1 33.5t-7 25.5
q-5 22 -18.5 38.5t-41.5 27.5l-55 8l-143 2q-37 0 -58 -10q-24 -6 -37.5 -19.5t-20.5 -40t-7 -67.5v-600q0 -36 6 -62q5 -16 25 -34q16 -12 45 -21l65 -6v-39h-473v41l70 2q14 4 20.5 6t26.5 12q15 14 24 37q6 16 8.5 29.5t2.5 32.5v641q0 19 -2 33t-9 24z" />
    <glyph glyph-name="q" unicode="q" horiz-adv-x="1593" 
d="M739 825q-5 22 -18 35l-49 19l-76 6q-15 0 -28 -0.5t-23 -3.5l-33 -7l-25 -12l-18 -20l-14 -31l-11 -45l-6 -72l-2 -110q0 -95 -3 -164.5t-11 -132.5q-12 -117 -41 -181q-23 -55 -70 -96q-42 -30 -102 -30q-18 0 -33.5 2t-28.5 8q-28 6 -53 22q-11 9 -20.5 19.5
t-18.5 23.5q-12 26 -12 64l6 39l19 30l26 19l33 8q21 0 33.5 -3.5t21.5 -12.5q20 -14 31 -45l12 -37q0 -7 13 -21q7 -9 24 -16q25 0 43 37q8 17 15 42t14 62l14 105q6 36 6 84l6 223v74v53l-10 63q-3 28 -18 49q-6 11 -18 19t-33 16q-41 13 -93 13v43h891v-41q-43 0 -69 -9
q-25 -5 -47 -18q-7 -5 -14 -15t-13 -22l-8 -59v-269h186q92 0 165.5 -16.5t127.5 -48.5q26 -16 46 -36t34 -46.5t21.5 -57t7.5 -65.5q0 -62 -27 -110q-23 -45 -76 -84q-48 -31 -115 -50l-63 -12l-76 -4h-563v41l70 2q14 4 20.5 6t26.5 12q15 14 24 37q5 14 7.5 33.5
t3.5 28.5v608q0 33 -9 57zM934 84q2 -7 18 -16l39 -7l70 -2h30h24q8 2 11 2q19 0 60 17q22 7 37 16.5t34 28.5q29 28 46 72l12 34l4 43q0 46 -21 80q-16 30 -55 60q-14 10 -38 20.5t-54 20.5l-57 10l-64 4l-102 2v-350z" />
    <glyph glyph-name="r" unicode="r" horiz-adv-x="1139" 
d="M391 119q12 -12 27.5 -23.5t32.5 -19.5l34 -17l35 -12l72 -8q36 0 64 6.5t57 22.5q50 29 92 92q37 63 57 131q9 35 14 70t5 75q0 37 -5 76.5t-14 77.5q-17 69 -55 137q-19 31 -42.5 54.5t-52.5 39.5t-62.5 24.5t-71.5 8.5q-33 0 -72 -12q-17 -4 -35.5 -13.5t-40.5 -23.5
l-51 -49q-14 -18 -23 -51v-529q10 -22 15.5 -32t19.5 -25zM168 784q-6 19 -21 33q-10 10 -38 21l-58 8l-26 2v41q17 0 49 6l35 8l96 29l88 29l63 20v-170l64 66l76 55q18 11 39 21t43 16q42 12 88 12q91 0 161 -33q73 -29 126.5 -92.5t80.5 -148.5q13 -43 20 -83.5t7 -86.5
q0 -115 -31 -210t-94.5 -178.5t-153.5 -128.5q-44 -20 -90.5 -30t-101.5 -10h-27q-20 0 -39 4h-17h-13q-9 2 -13 2l-22 8l-53 18q-23 11 -50 33v-360q0 -34 6 -60q8 -25 26.5 -37t47.5 -18l72 -6v-41h-483v41l69 6q15 4 22 6.5t25 11.5q16 13 25 37q4 12 7 27.5t3 32.5v1050
q0 21 -1 29.5t-7 19.5z" />
    <glyph glyph-name="s" unicode="s" horiz-adv-x="909" 
d="M815 162q-40 -58 -94 -103q-42 -35 -113 -59q-32 -9 -69.5 -14.5t-69.5 -5.5q-42 0 -75 6.5t-65 21t-63.5 36.5t-64.5 54q-62 62 -92.5 153t-30.5 222q0 107 30 196.5t101 164.5q31 32 70.5 60t82.5 48q45 19 92 29t99 10q64 0 112 -13.5t95.5 -36.5t75.5 -63
q13 -19 19.5 -40t6.5 -46q0 -16 -1 -23.5t-7 -19.5q-5 -14 -20 -34l-33 -23l-37 -8l-45 6q-8 3 -17.5 8.5t-17.5 13.5l-22 39l-9 54q0 14 -2 25t-8 20q-6 15 -31 37l-45 20l-55 8q-62 0 -113 -26q-25 -14 -45 -32.5t-41 -49.5q-13 -25 -24.5 -51.5t-26.5 -65.5l-12 -62
l-4 -67q0 -79 18 -155t66 -138q36 -61 98.5 -93t140.5 -32q43 0 88 12q24 7 43 16t39 25q32 21 70 62q14 14 27 33l26 47l41 -21q-37 -76 -88 -145z" />
    <glyph glyph-name="t" unicode="t" 
d="M334 43q27 6 51 18q13 11 27 37q10 28 10 62v696q0 9 -6 23q0 4 -6 10l-19 6l-29 4q-34 0 -58 -4t-54 -16q-45 -19 -83 -56.5t-55.5 -90t-17.5 -107.5l-49 2l16 336h902l16 -336h-49q0 56 -19 104q-10 26 -22 47t-31 41q-28 35 -88 58q-26 10 -53 16t-55 6l-33 -2
q-11 0 -18 -7t-7 -13l-2 -23v-692q0 -38 8 -66q9 -24 29 -37q9 -4 24.5 -8.5t26.5 -7.5l80 -4v-39h-516v41z" />
    <glyph glyph-name="u" unicode="u" 
d="M129 848q-8 16 -13 23.5t-14 15.5q-12 15 -30 24l-43 9v43h440v-41q-64 0 -89.5 -16t-31.5 -52l2 -20l6 -25l9 -31l14 -30l217 -521l170 494l16 43l9 37l6 28l2 25q0 11 -2 19t-9 16q-6 12 -28 20l-39 6l-35 5v43h309v-41l-47 -19q-13 -5 -28 -26l-25 -50l-31 -77
l-293 -795q-35 -98 -41 -107q-14 -37 -43 -90q-18 -38 -35 -68.5t-38 -60.5q-37 -47 -89 -76.5t-108 -29.5q-21 0 -30.5 1t-24.5 7l-45 18q-8 6 -15 13t-14 18l-12 43l6 39q7 20 20 31l31 20l39 6l37 -4l41 -16l39 -14l28 -7q25 0 45 17q18 11 39 43l37 76l43 104l25 66
l-348 809q-2 6 -5 14t-10 16q-2 8 -4.5 13t-9.5 12z" />
    <glyph glyph-name="v" unicode="v" 
d="M377 84l12 -14l27 -9l45 -2q141 0 215 49t74 148v18q0 26 -5 41q-3 19 -18 47q-18 44 -63 62q-24 10 -46 17q-9 3 -53 16l-78 8h-17h-13q-9 2 -13 2h-12h-12l-12 -2h-11q-12 0 -18 -6l-4 -15v-327zM389 535q11 -7 45 -7h74l41 9q47 6 86 28q39 19 59 60q10 18 15.5 40
t5.5 46q0 56 -17 86q-6 16 -17.5 30.5t-29.5 24.5q-29 20 -74.5 33.5t-109.5 13.5q-13 0 -25 -0.5t-20 -3.5q-14 0 -29 -6l-14 -10l-4 -17v-303q0 -16 14 -24zM184 858q-6 25 -24 37q-9 6 -21 10.5t-26 7.5q-27 7 -70 7v43h532h39.5t32.5 -2q21 0 62 -15q60 -13 98 -41
q40 -25 65 -76q11 -20 17 -45.5t6 -56.5q0 -43 -13.5 -76.5t-37.5 -60.5q-12 -12 -30 -24t-42 -25q-40 -19 -100 -31q75 -12 131 -39q53 -17 84 -53q12 -14 24 -33.5t19 -38.5q16 -38 16 -86q0 -62 -26 -113q-13 -25 -31.5 -44.5t-46.5 -36.5q-24 -14 -56 -27.5t-67 -24.5
l-74 -10l-82 -4h-520v41l70 2q14 4 20.5 6t26.5 12q15 14 24 37q6 16 8.5 29.5t2.5 32.5v641q0 19 -2 33t-9 24z" />
    <glyph glyph-name="w" unicode="w" horiz-adv-x="1593" 
d="M199 858q-6 24 -24.5 36.5t-47.5 18.5q-25 7 -70 7v43h473v-41q-26 0 -36.5 -1.5t-30.5 -7.5t-39 -18q-8 -6 -12.5 -12.5t-14.5 -24.5l-8 -59v-269h402v271q0 35 -11 57q-3 12 -8.5 22t-13.5 15q-15 12 -43 18q-24 7 -66 7v43h473v-41q-43 0 -69 -9q-25 -5 -47 -18
q-7 -5 -14 -15t-13 -22l-8 -59v-269h164q91 0 165 -16.5t127 -48.5q26 -15 46.5 -36t33.5 -48q29 -50 29 -121q0 -65 -27 -110q-23 -44 -75 -84q-48 -31 -115 -50l-64 -12l-75 -4h-531v41l64 2q23 6 43 18q17 13 26 37l9 62v295h-402v-293q0 -36 6 -62q3 -9 9 -17
q3 -4 16 -17q16 -12 45 -21l65 -6v-39h-473v41l70 2q22 6 47 18q9 8 14.5 15.5t10.5 21.5q10 28 10 62v641q0 19 -2 33t-8 24zM975 84q5 -8 16 -16l31 -7l55 -2q74 0 119.5 15t79.5 49q29 29 47 72l12 34l4 43q0 46 -20 80q-7 14 -21.5 29.5t-33.5 30.5q-14 10 -39 20.5
t-54 20.5l-57 10l-63 4l-80 2v-350q0 -27 4 -35z" />
    <glyph glyph-name="x" unicode="x" horiz-adv-x="1139" 
d="M184 858q-6 25 -24 37q-9 6 -21 10.5t-26 7.5q-27 7 -70 7v43h483v-41q-43 0 -69 -9q-25 -5 -47 -18q-7 -5 -14 -15t-13 -22l-8 -59v-649q0 -47 20 -70q14 -10 30 -15.5t38 -5.5l213 2q36 0 65 19q23 21 23 67v654q0 19 -2 33t-8 24q-6 24 -24.5 36.5t-47.5 18.5
q-25 7 -70 7v43h484v-41q-43 0 -70 -9q-25 -6 -47 -18q-8 -6 -12.5 -12.5t-14.5 -24.5l-8 -59v-637q0 -35 6 -61t25.5 -39t48.5 -19l72 -4v-39h-443v-256h-168v256h-442v41l70 2q14 4 20.5 6t26.5 12q15 14 24 37q6 16 8.5 29.5t2.5 32.5v641q0 19 -2 33t-9 24z" />
    <glyph glyph-name="y" unicode="y" horiz-adv-x="799" 
d="M616 692q-9 30 -18 49q-3 9 -8.5 20.5t-14.5 24.5q-9 24 -20 42t-27 32q-24 29 -65 43q-20 8 -42 12.5t-48 4.5h-27q-8 0 -35 -9q-12 -3 -23.5 -8t-23 -14t-19 -17.5t-18.5 -23.5q-3 -8 -5.5 -23.5t-4.5 -27.5q0 -25 3.5 -42t12.5 -34q19 -28 54 -53l88 -54l125 -67
q15 -9 37 -21q13 -7 26.5 -14.5t29 -19t23.5 -17.5q33 -21 66 -61q10 -16 17.5 -32t13.5 -38q12 -41 12 -88q0 -31 -5 -57.5t-18 -51.5q-17 -40 -67 -90q-40 -33 -98 -57q-27 -9 -57 -14.5t-54 -5.5l-57 4l-66 12l-35 4l-32 8l-37 8l-33 11q-12 0 -19.5 -7.5t-7.5 -19.5h-41
l-12 322h47q0 -57 21 -109q9 -24 23.5 -47.5t35.5 -44.5q37 -40 88 -62l49 -14q29 -6 56 -6q26 0 36 1.5t27 6t31.5 11.5t27.5 18q24 17 39 45q12 27 15 61q0 21 -4.5 41t-14.5 39q-18 35 -53 57l-88 52l-117 63q-34 17 -62.5 34.5t-49.5 35.5q-42 35 -70 69q-25 33 -39 72
q-4 18 -7 39t-3 43q0 33 4 56t16 51q11 22 27.5 43t38.5 36q39 29 96.5 48.5t120.5 19.5l26 -2q19 0 25 -4q10 0 12 -4h11l10 -4l10 -2l8 -4h13q10 0 12 -5l12 -2l27 -4l26 -2q15 0 25 5.5t16 27.5l37 2l8 -291h-39z" />
    <glyph glyph-name="z" unicode="z" horiz-adv-x="909" 
d="M154 145q36 -24 77 -43l80 -30l72 -9q39 0 83 12t77.5 37.5t51 63.5t17.5 92q0 32 -5 58t-17 47q-24 44 -68 67q-21 11 -44.5 18.5t-50.5 13t-49 8.5t-35 3h-16h-12q-7 2 -10 2v54h23h18q13 2 19 2q19 0 28 1t27 7q27 7 46.5 15.5t41.5 25.5q35 24 57 67q19 42 19 95
q0 83 -42.5 130.5t-125.5 47.5q-58 0 -103 -19q-21 -9 -41.5 -24.5t-40.5 -38.5q-16 -22 -29 -42.5t-28 -47.5l-20 -45l-21 -64l-33 2l17 330h33l2 -18l8 -13l10 -10l16 -2l66 14l72 15l73 10l72 4h37.5t30.5 -2q21 0 59 -14q56 -14 96.5 -41t65.5 -76q22 -46 22 -107
q0 -43 -14 -78t-45 -63q-26 -26 -71 -45.5t-107 -32.5q57 -9 106 -33q25 -10 45.5 -21.5t42.5 -29.5q42 -29 64 -78q9 -21 14.5 -46t5.5 -50q0 -36 -6 -66t-20 -59q-24 -50 -82 -90q-26 -16 -57 -29.5t-64 -21.5q-68 -18 -143 -18q-51 0 -107 12q-23 4 -48.5 12t-50.5 19
t-48.5 25t-47.5 32l-90 86l39 33z" />
    <glyph glyph-name="braceleft" unicode="{" horiz-adv-x="1708" 
d="M184 858q-6 25 -24 37q-9 6 -21 10.5t-26 7.5q-27 7 -70 7v43h473v-41q-26 0 -36.5 -1.5t-28.5 -7.5q-22 -5 -41 -18q-7 -5 -14 -15t-13 -22l-8 -59v-617l6 -67q6 -24 22 -35l13 -6q4 0 14.5 -2.5t28.5 -8.5l110 -4h47h33l29 4q23 4 36 7.5t19 7.5q11 8 23 37l8 65v621
q0 19 -2 33t-8 24q-6 24 -24.5 36.5t-47.5 18.5q-25 7 -70 7v43h484v-41q-43 0 -70 -9q-25 -6 -47 -18q-8 -6 -12.5 -12.5t-14.5 -24.5l-8 -59v-617l6 -67q5 -23 23 -35l12 -6q4 0 14.5 -2t28.5 -9l111 -4h47h33l28 4q23 4 36 7.5t21 9t21 35.5l8 65v621q0 18 -2 32t-8 25
q-3 11 -5 16q-6 14 -18 21q-15 12 -43 18q-22 7 -65 7v43h473v-41q-43 0 -70 -9q-23 -5 -47 -18q-8 -6 -12.5 -13t-13.5 -24l-9 -59v-637q0 -16 1.5 -31.5t6.5 -36t25 -33.5q9 -6 21 -10.5t26 -7.5l72 -4v-39h-1622v41l70 2q14 4 20.5 6t26.5 12q15 14 24 37q6 16 8.5 29.5
t2.5 32.5v641q0 19 -2 33t-9 24z" />
    <glyph glyph-name="bar" unicode="|" horiz-adv-x="909" 
d="M571 1391l29 20l29 14q11 7 28 7l29 -7q11 0 21 -14l14 -22l4 -27q0 -14 -3.5 -24t-12.5 -19q-11 -16 -43 -39l-320 -199h-82l281 285zM184 858q-6 25 -24 37q-9 6 -21 10.5t-26 7.5q-27 7 -70 7v43h811l12 -316h-35q-20 80 -40 117q-19 44 -44 68.5t-81.5 38.5
t-153.5 14l-78 -2q-25 0 -39 -9q-12 -6 -16 -10l-4 -26v-676q0 -25 1 -35.5t8.5 -32t26.5 -33.5t58 -18l88 -4v-39h-514v41l70 2q14 4 20.5 6t26.5 12q15 14 24 37q6 16 8.5 29.5t2.5 32.5v641q0 19 -2 33t-9 24z" />
    <glyph glyph-name="braceright" unicode="}" horiz-adv-x="1139" 
d="M199 858q-6 24 -24.5 36.5t-47.5 18.5q-25 7 -70 7v43h484v-41q-43 0 -70 -9q-25 -6 -47 -18q-8 -6 -12.5 -12.5t-14.5 -24.5l-8 -59v-314q14 0 70 50l133 127l127 129l51 53l6 14l4 14q0 17 -7.5 23.5t-29.5 15.5l-38 7l-46 2v43h414v-41h-26q-9 0 -35 -9l-47 -16
q-11 -5 -14.5 -7t-12.5 -9l-29 -25l-88 -76l-260 -235l414 -430l35 -37l28 -21l33 -12l49 -12v-33h-465v35l56 -2h11q15 0 19 4l15 8l4 12l-15 23l-36 51l-70 78l-102 113l-97 96q-10 8 -28 20q-9 6 -23 15v-291q0 -35 6 -61t25.5 -39t48.5 -19l72 -4v-39h-484v41l70 2
q22 6 47 18q9 8 14.5 15.5t10.5 21.5q10 28 10 62v641q0 19 -2 33t-8 24zM733 1391l29 20l29 14q11 7 28 7l29 -7q12 0 20 -14l15 -22l4 -27q0 -14 -3.5 -23.5t-13.5 -19.5q-9 -16 -43 -39l-319 -199h-82l281 285z" />
    <glyph glyph-name="asciitilde" unicode="~" horiz-adv-x="1139" 
d="M516 963v-41q-26 0 -36.5 -1.5t-28.5 -7.5q-22 -5 -41 -18q-7 -5 -14 -15t-13 -22l-8 -59v-185q0 -24 2 -44t8 -35q12 -32 33 -50q6 -4 20 -11t41 -17l103 -8l53 2l49 6q21 2 29 3.5t14 6.5l35 16v318q0 18 -2 32t-8 25q-6 26 -23 37q-15 12 -43 18q-22 7 -65 7v43h473
v-41q-14 0 -31 -0.5t-39 -8.5q-25 -6 -47 -18q-14 -11 -27 -37l-8 -59v-637q0 -35 6 -61t26 -39.5t48 -18.5l72 -4v-39h-484v41l70 2q22 6 47 18q15 13 25 37q10 28 10 62v280l-64 -24l-69 -17l-72 -10l-70 -2q-60 0 -116 12q-29 7 -52 16.5t-45 24.5q-37 29 -59 64
q-20 40 -20 78v219q0 19 -2 33t-9 24q-6 25 -24 37q-9 6 -21 10.5t-26 7.5q-27 7 -70 7v43h473z" />
    <glyph glyph-name="quotesinglbase" unicode="&#x201a;" horiz-adv-x="682" 
d="M203 -341v44q103 33 159.5 105t56.5 152q0 17 -7.5 29t-15.5 12q-12 0 -48 -20q-18 -9 -38 -9q-49 0 -78 29t-29 80q0 48 37.5 83.5t91.5 35.5q66 0 117 -58q26 -29 39 -66t13 -86q0 -101 -71 -189.5t-227 -141.5z" />
    <glyph glyph-name="florin" unicode="&#x192;" 
d="M687 875h178l-17 -66h-174q-52 -274 -172 -708q-93 -340 -205 -449q-85 -83 -173 -83q-55 0 -88.5 30.5t-33.5 74.5q0 40 24 64.5t53 24.5q25 0 45 -18t20 -38q0 -21 -14 -38q-8 -11 -10 -19q0 -7 6 -13t19 -8q20 0 37 10q29 16 58.5 63t60.5 178l86 415l123 514h-177
l15 66q46 0 76.5 4.5t47.5 10.5q26 9 43 32q26 34 60 134q72 211 139.5 271t147.5 60q61 0 99 -33t38 -79q0 -35 -20 -56t-48 -21q-27 0 -45 17.5t-18 38.5q0 16 10 33t12 28q0 10 -9 19q-11 7 -26 7q-31 0 -58 -24q-34 -32 -46 -84q-26 -114 -64 -358z" />
    <glyph glyph-name="quotedblbase" unicode="&#x201e;" horiz-adv-x="909" 
d="M115 -316v42q102 58 133 104t31 107q0 28 -10.5 42t-23.5 14q-11 0 -32 -8q-11 -4 -21 -6t-23 -2q-42 0 -72 30t-30 73q0 49 38.5 84.5t93.5 35.5q65 0 119 -57t54 -144q0 -106 -67 -192.5t-190 -122.5zM592 -316v42q85 44 124.5 95t39.5 110q0 35 -9.5 48t-22.5 14
q-10 0 -15.5 -1.5t-24.5 -8t-35 -6.5q-41 0 -71.5 30.5t-30.5 74.5q0 47 37 82.5t91 35.5q67 0 121.5 -58t54.5 -144q0 -100 -66 -186t-193 -128z" />
    <glyph glyph-name="ellipsis" unicode="&#x2026;" horiz-adv-x="2048" 
d="M341 194q46 0 78.5 -32.5t32.5 -78.5q0 -44 -32.5 -77.5t-78.5 -33.5q-24 0 -42 7t-37 25q-32 34 -32 79q0 47 33 79t78 32zM1024 194q45 0 78 -32.5t33 -78.5q0 -44 -32.5 -77.5t-78.5 -33.5q-24 0 -42 7t-37 25q-32 34 -32 79q0 47 33 79t78 32zM1707 194
q45 0 78 -32.5t33 -78.5q0 -44 -32.5 -77.5t-78.5 -33.5q-24 0 -42 7t-37 25q-32 34 -32 79q0 47 32 79t79 32z" />
    <glyph glyph-name="dagger" unicode="&#x2020;" 
d="M524 -421h-37q0 223 -8 390t-24 312q-21 198 -69 378q50 43 73 93q12 26 20 63.5t8 80.5q-67 -6 -132 -35q-106 -44 -153 -44q-44 0 -72.5 27.5t-28.5 67.5q0 42 30 70.5t73 28.5q23 0 46 -6q6 -2 31 -12t74 -32q30 -13 64.5 -21.5t67.5 -8.5q0 41 -7 62q-6 28 -30 86
q-54 128 -54 194q0 56 33 93t79 37q43 0 75 -38q34 -37 34 -92q0 -21 -1 -31t-7 -29q-10 -41 -46 -126q-18 -44 -28.5 -83.5t-10.5 -72.5q71 6 132 30q96 38 116 43.5t44 5.5q48 0 77.5 -27.5t29.5 -70.5q0 -38 -30 -68q-30 -28 -73 -28q-56 0 -165 47q-23 9 -32 12
q-25 10 -37 13l-62 8q0 -42 7.5 -79.5t19.5 -65.5q22 -50 73 -92q-47 -180 -67 -364q-5 -48 -13 -158t-14 -265.5t-6 -292.5z" />
    <glyph glyph-name="daggerdbl" unicode="&#x2021;" 
d="M530 976q8 -67 26.5 -99t67.5 -71q-49 -72 -72 -144q-10 -34 -16 -79.5t-6 -98.5q0 -98 21 -167.5t73 -146.5q-48 -41 -66.5 -73t-27.5 -97q20 3 31.5 5t27 6.5t69.5 26.5q85 35 134 35q41 0 67 -24.5t26 -63.5q0 -40 -26 -66t-66 -26q-41 0 -127 37q-12 5 -37 14
t-33.5 11t-28.5 5t-37 3q8 -61 12.5 -79t21.5 -57q50 -111 50 -164q0 -46 -29 -75.5t-72 -29.5q-41 0 -70.5 31t-29.5 77q0 21 6.5 50t39.5 114q23 63 31 133q-42 0 -68.5 -7t-76.5 -29q-77 -34 -113 -34q-41 0 -66 25t-25 63q0 41 27 66.5t69 25.5q40 0 113 -32
q48 -21 76 -27q4 -1 25.5 -4t38.5 -3q-9 60 -27.5 91.5t-68.5 71.5q45 60 66 120q31 93 31 206q0 119 -32 205q-19 56 -65 105q49 37 66.5 69t29.5 101q-22 0 -33 -1.5t-26 -6.5q-9 -2 -29.5 -9.5t-56.5 -22.5q-69 -27 -118 -27q-38 0 -63 25t-25 63q0 35 24.5 60.5
t62.5 25.5q45 0 131 -34q52 -21 76 -27q5 -1 13.5 -2.5t43.5 -5.5q0 41 -8 63q-10 39 -45 129l-23 60l-4 45q0 50 29 80.5t72 30.5q42 0 69.5 -29t27.5 -86q0 -30 -5 -49.5t-37 -92.5q-16 -36 -26 -75t-10 -76q21 0 34 1.5t25.5 4.5t32.5 10.5t47 19.5q75 33 126 33
q39 0 64.5 -25t25.5 -62q0 -39 -26.5 -64t-67.5 -25q-46 0 -126 33q-50 22 -71 28q-8 2 -28.5 4.5t-35.5 3.5z" />
    <glyph glyph-name="circumflex" unicode="&#x2c6;" horiz-adv-x="682" 
d="M249 1385h184l190 -331h-31l-273 213l-229 -213h-30z" />
    <glyph glyph-name="perthousand" unicode="&#x2030;" horiz-adv-x="2048" 
d="M1220 1387l-972 -1442h-89l972 1442h89zM353 1387q76 0 144 -45t107 -131t39 -190q0 -168 -84.5 -265t-201.5 -97q-75 0 -144 43.5t-108.5 128t-39.5 191.5q0 102 39 189.5t106 132.5q34 21 69.5 32t73.5 11zM349 1334q-30 0 -50 -16q-33 -28 -51 -87q-10 -37 -16 -92
t-6 -122q0 -186 47 -258q33 -50 82 -50q45 0 79 52q49 80 49 269q0 178 -48 252q-35 52 -86 52zM1029 673q71 0 138.5 -44t108 -131.5t40.5 -185.5q0 -107 -39 -192.5t-109 -130t-142 -44.5q-113 0 -200.5 97.5t-87.5 265.5q0 106 39.5 192.5t111 129.5t140.5 43zM1025 620
q-31 0 -54 -19q-35 -29 -54 -93t-19 -208q0 -180 46 -251q32 -49 80 -49t82 50q49 77 49 253q0 188 -50 266q-32 51 -80 51zM1691 673q68 0 140 -43t111 -125.5t39 -184.5q0 -119 -36 -201.5t-108 -128t-144 -45.5q-71 0 -139.5 44t-108 127.5t-39.5 184.5q0 60 9 109t29 94
q37 85 110 127t137 42zM1691 620q-49 0 -80 -47q-45 -72 -45 -269q0 -183 46 -254q33 -50 83 -50q30 0 53 19q32 27 52.5 94.5t20.5 215.5q0 171 -47 240q-35 51 -83 51z" />
    <glyph glyph-name="guilsinglleft" unicode="&#x2039;" horiz-adv-x="682" 
d="M563 -8h-57l-387 472l387 470h57l-244 -470z" />
    <glyph glyph-name="quoteleft" unicode="&#x2018;" horiz-adv-x="682" 
d="M444 1387v-43q-102 -61 -139 -115q-27 -39 -27 -92q0 -30 11.5 -46t26.5 -16q6 0 10 1t18 6q27 9 44 9q38 0 71 -30q31 -31 31 -75q0 -51 -31 -79q-43 -38 -100 -38q-67 0 -120.5 57.5t-53.5 140.5q0 117 88 215q59 63 171 105z" />
    <glyph glyph-name="quoteright" unicode="&#x2019;" horiz-adv-x="682" 
d="M238 869v47q100 59 140 114q26 38 26 91q0 31 -11.5 46t-25.5 15q-11 0 -33 -8t-39 -8q-38 0 -71 30q-31 31 -31 75q0 50 31 78q43 38 100 38q66 0 120 -56.5t54 -140.5q0 -117 -89 -215q-58 -62 -171 -106z" />
    <glyph glyph-name="quotedblleft" unicode="&#x201c;" horiz-adv-x="909" 
d="M326 1387v-41q-87 -45 -125.5 -95.5t-38.5 -109.5q0 -35 9 -47.5t23 -14.5q13 0 35 7.5t40 7.5q40 0 71 -31t31 -74q0 -47 -37 -82t-92 -35q-66 0 -120.5 57.5t-54.5 143.5q0 99 65.5 185.5t193.5 128.5zM803 1384v-38q-101 -57 -133 -103.5t-32 -108.5q0 -28 10.5 -41.5
t23.5 -14.5q13 0 33 8q11 4 21 6t23 2q39 0 70.5 -29.5t31.5 -72.5q0 -47 -38.5 -84t-94.5 -37q-65 0 -118.5 57.5t-53.5 141.5q0 105 66.5 191.5t190.5 122.5z" />
    <glyph glyph-name="quotedblright" unicode="&#x201d;" horiz-adv-x="909" 
d="M115 1071v42q102 58 133 104t31 107q0 28 -10.5 42t-23.5 14q-11 0 -32 -8q-11 -4 -21 -6t-23 -2q-42 0 -72 30t-30 73q0 49 38.5 84.5t93.5 35.5q65 0 119 -57t54 -144q0 -106 -67 -192.5t-190 -122.5zM592 1071v42q85 44 124.5 95t39.5 110q0 35 -9.5 48t-22.5 14
q-10 0 -15.5 -1.5t-24.5 -8t-35 -6.5q-41 0 -71.5 30.5t-30.5 74.5q0 47 37 82.5t91 35.5q67 0 121.5 -58t54.5 -144q0 -100 -66 -186t-193 -128z" />
    <glyph glyph-name="bullet" unicode="&#x2022;" horiz-adv-x="717" 
d="M363 928q104 0 177.5 -73t73.5 -178q0 -104 -73.5 -177.5t-177.5 -73.5t-177.5 74t-73.5 177q0 104 72.5 177.5t178.5 73.5z" />
    <glyph glyph-name="endash" unicode="&#x2013;" 
d="M1041 453h-1059v73h1059v-73z" />
    <glyph glyph-name="emdash" unicode="&#x2014;" horiz-adv-x="2048" 
d="M2066 453h-2085v74h2085v-74z" />
    <glyph glyph-name="tilde" unicode="&#x2dc;" horiz-adv-x="682" 
d="M54 1097h-32q0 67 14.5 116.5t42.5 81.5q53 61 131 61q42 0 80.5 -14.5t121.5 -69.5t123 -55q30 0 56 27q24 27 39 112h31q0 -94 -24.5 -147.5t-71 -84.5t-94.5 -31q-79 0 -196 80q-62 41 -84 51t-44 10q-39 0 -65 -36q-10 -16 -28 -101z" />
    <glyph glyph-name="trademark" unicode="&#x2122;" horiz-adv-x="2007" 
d="M51 1356h728l22 -201h-34q-9 72 -52.5 106.5t-141.5 34.5h-75v-579q0 -84 20 -107q11 -12 32 -18.5t54 -6.5v-36h-374v36q64 6 82 27t18 104v580h-76q-96 0 -135 -32q-39 -30 -55 -109h-34zM1156 1356l273 -572l265 572h279v-37q-57 0 -75 -11q-18 -9 -27 -31t-9 -93
v-468q0 -84 19 -106q10 -12 32.5 -18.5t59.5 -6.5v-36h-398v36q58 0 79.5 11.5t30.5 33.5t9 85v492l-307 -658h-32l-308 649v-482q0 -69 8.5 -88.5t27 -31t57.5 -11.5h36v-36h-306v36q56 0 75 9.5t28.5 31t9.5 90.5v466q0 75 -8.5 95.5t-28.5 31t-76 10.5v37h286z" />
    <glyph glyph-name="guilsinglright" unicode="&#x203a;" horiz-adv-x="682" 
d="M115 934h58l394 -472l-394 -470h-58l243 470z" />
    <glyph glyph-name="nonbreakingspace" unicode="&#xa0;" horiz-adv-x="512" 
 />
    <glyph glyph-name="exclamdown" unicode="&#xa1;" horiz-adv-x="682" 
d="M342 974q46 0 78.5 -32.5t32.5 -78.5q0 -45 -32.5 -77.5t-78.5 -32.5t-78 32t-32 78t32 78.5t78 32.5zM322 587h38l89 -810l5 -79q0 -63 -33.5 -101.5t-79.5 -38.5t-79.5 38t-33.5 114q0 11 1 28.5t4 38.5z" />
    <glyph glyph-name="cent" unicode="&#xa2;" 
d="M900 349q-46 -187 -163 -292q-90 -81 -221 -81q-83 0 -162 35l-142 -390h-70l155 427q-81 75 -117 154q-51 110 -51 250q0 254 157 390q120 105 273 105l61 -4l140 383h72l-145 -402q101 -45 138 -87q48 -54 48 -115q0 -38 -24.5 -61.5t-69.5 -23.5q-54 0 -86 38
q-17 20 -26 82q-3 32 -17 65l-228 -631q56 -38 94 -51q30 -10 69 -10q61 0 116.5 25t85.5 60q26 31 83 147zM370 250l223 615q-27 12 -60 12q-103 0 -162 -74q-82 -100 -82 -268q0 -37 4 -71.5t13 -66.5q19 -65 64 -147z" />
    <glyph glyph-name="sterling" unicode="&#xa3;" 
d="M723 659h-258l1 -68q0 -50 -3 -90.5t-11 -83.5q-12 -79 -48 -184q197 -64 224 -69q51 -12 102 -12q84 0 135 38.5t76 121.5l36 -9q-21 -161 -103 -244t-184 -83q-67 0 -121.5 24t-204.5 136q-39 -79 -86 -119.5t-100 -40.5q-50 0 -83.5 34.5t-33.5 94.5q0 66 45.5 111
t118.5 45l38 -2l47 -6l2 45l1 32q0 86 -21 329h-194v95h194q0 47 -4.5 97.5t-8.5 101.5q0 122 48.5 222.5t135.5 154.5t186 54q127 0 190 -68.5t63 -135.5q0 -32 -25 -57t-53 -25q-38 0 -63 38q-6 10 -10.5 29.5t-4.5 47.5q0 29 -8.5 51t-25.5 37q-31 28 -87 28
q-78 0 -130 -62t-52 -218q0 -71 12 -187l10 -108h258v-95zM298 172q-22 14 -45 21t-40 7q-45 0 -70 -25t-25 -63q0 -37 19.5 -57.5t45.5 -20.5q33 0 64.5 30.5t50.5 107.5z" />
    <glyph glyph-name="currency" unicode="&#xa4;" 
d="M794 1019l143 142l58 -57l-144 -141q103 -133 103 -281q0 -153 -103 -284l144 -145l-58 -55l-143 143q-135 -103 -270 -103q-86 0 -170.5 30t-124.5 73l-146 -143l-56 55l144 145q-102 117 -102 282q0 155 102 283l-144 141l56 57l146 -142q50 44 131.5 73t153.5 29
q35 0 70.5 -6t74.5 -20q77 -26 135 -76zM512 1040q-150 0 -256 -106t-106 -257q0 -147 106 -253t255 -106t256 107t107 254q0 90 -48.5 178t-135 135.5t-178.5 47.5z" />
    <glyph glyph-name="yen" unicode="&#xa5;" 
d="M597 425h426v-73h-426v-108q0 -113 11 -143q9 -20 34 -38q38 -22 85 -22h41v-41h-515v41h32q69 0 104 26q24 18 33 57q4 24 4 120v108h-424v73h424v144l-15 36h-409v73h377l-213 496q-36 87 -73 115q-18 14 -40.5 21.5t-50.5 7.5v38h442v-38q-37 0 -59.5 -6t-37.5 -17
q-24 -18 -24 -39q0 -14 18 -59l214 -519l213 504q21 50 21 75q0 20 -21 41q-12 11 -64 17l-27 3v38h346v-38q-61 0 -87 -23q-40 -33 -86 -132l-214 -485h387v-73h-419l-7 -16v-164z" />
    <glyph glyph-name="brokenbar" unicode="&#xa6;" horiz-adv-x="410" 
d="M244 1422v-742h-83v742h83zM244 300v-742h-83v742h83z" />
    <glyph glyph-name="section" unicode="&#xa7;" 
d="M377 843q-66 74 -96 135q-14 32 -21 61t-7 63q0 117 81.5 199.5t202.5 82.5q110 0 181.5 -66.5t71.5 -153.5q0 -40 -26 -69q-18 -21 -53 -21q-33 0 -55.5 23.5t-22.5 53.5q0 13 1 21t6.5 32.5t5.5 42.5q0 40 -29 67.5t-80 27.5q-71 0 -122.5 -51.5t-51.5 -123.5
q0 -62 27 -106q45 -70 151 -147q200 -144 275 -260q52 -83 52 -172q0 -91 -52.5 -181t-168.5 -161q69 -77 96 -133t27 -121q0 -122 -82 -204t-202 -82q-108 0 -179.5 68.5t-71.5 156.5q0 37 23 63q25 25 55 25t53 -23q22 -25 22 -64q0 -20 -1 -29t-7 -30q-8 -35 -8 -50
q0 -29 25 -48q39 -30 95 -30q66 0 121 52t55 113q0 62 -31 111q-47 73 -174 170q-187 139 -256 247q-51 81 -51 172t54 180.5t167 158.5zM409 812q-151 -91 -151 -222q0 -70 37 -129q51 -81 197 -191q70 -53 122 -101q153 93 153 220q0 66 -43.5 135.5t-181.5 177.5
q-85 66 -133 110z" />
    <glyph glyph-name="dieresis" unicode="&#xa8;" horiz-adv-x="682" 
d="M518 1337q45 0 76.5 -32t31.5 -77t-31.5 -76.5t-76.5 -31.5t-77 31.5t-32 76.5t32 77t77 32zM165 1337q45 0 77 -32t32 -77t-32.5 -76.5t-75.5 -31.5q-45 0 -77 31.5t-32 76.5t31.5 77t76.5 32z" />
    <glyph glyph-name="copyright" unicode="&#xa9;" horiz-adv-x="1556" 
d="M778 1387q180 0 349 -91t265 -262t96 -356q0 -183 -93.5 -351.5t-262.5 -263t-354 -94.5q-182 0 -351.5 93t-263.5 263t-94 353q0 94 23 181t72 174q96 171 266 262.5t348 91.5zM778 1326q-162 0 -316.5 -83.5t-242.5 -239.5t-88 -325q0 -168 85.5 -321.5t239.5 -240
t322 -86.5q169 0 323 86t239.5 240t85.5 322t-87 324.5t-242 240t-319 83.5zM1129 1134l20 -280h-39q-36 119 -115 177.5t-188 58.5q-81 0 -145.5 -33.5t-105.5 -91.5q-28 -40 -49 -113t-21 -151q0 -212 91 -312.5t240 -100.5q195 0 312 162l37 -19q-138 -203 -383 -203
q-198 0 -330.5 129t-132.5 315q0 193 140 327q70 68 159 102t199 34q44 0 78 -6.5t107 -31.5q5 -1 19 -4.5t18 -3.5q16 0 26.5 8.5t22.5 36.5h40z" />
    <glyph glyph-name="ordfeminine" unicode="&#xaa;" horiz-adv-x="565" 
d="M340 1180q0 107 -26.5 141.5t-79.5 34.5q-48 0 -71 -21.5t-23 -67.5t-17 -66q-15 -20 -41 -20q-23 0 -39.5 17.5t-16.5 42.5q0 55 57 99t177 44q92 0 141.5 -30.5t63 -64.5t13.5 -109v-218q0 -55 2.5 -64t9.5 -16t14 -7q13 0 58 30v-48q-72 -52 -98 -64q-11 -4 -24.5 -7
t-26.5 -3q-25 0 -45 20q-17 20 -28 75q-59 -42 -115.5 -66.5t-99.5 -24.5q-53 0 -92 38t-39 86q0 43 22 77q31 46 107 93q52 31 217 99zM340 1142q-119 -39 -163 -88t-44 -96q0 -34 25.5 -60t63.5 -26q23 0 51.5 10.5t66.5 33.5v226z" />
    <glyph glyph-name="guillemotleft" unicode="&#xab;" 
d="M508 -8h-57l-387 472l387 470h57l-244 -470zM960 -8h-58l-394 472l394 470h58l-243 -470z" />
    <glyph glyph-name="logicalnot" unicode="&#xac;" horiz-adv-x="1155" 
d="M36 878h1080v-406h-79v325h-1001v81z" />
    <glyph glyph-name="minus" unicode="&#xad;" horiz-adv-x="682" 
d="M83 535h517v-151h-517v151z" />
    <glyph glyph-name="registered" unicode="&#xae;" horiz-adv-x="1556" 
d="M778 1387q180 0 349 -91t265 -262t96 -356q0 -183 -93.5 -351.5t-262.5 -263t-354 -94.5q-182 0 -351.5 93t-263.5 263t-94 353q0 94 23 181t72 174q96 171 266 262.5t348 91.5zM778 1326q-162 0 -316.5 -83.5t-242.5 -239.5t-88 -325q0 -168 85.5 -321.5t239.5 -240
t322 -86.5q169 0 323 86t239.5 240t85.5 322t-87 324.5t-242 240t-319 83.5zM386 1114h386q143 0 220 -65.5t77 -158.5q0 -75 -51.5 -133t-170.5 -89l209 -298q38 -53 68 -73q8 -6 22.5 -10.5t30.5 -4.5v-33h-184l-294 405h-76v-309q6 -33 28.5 -48t89.5 -15v-33h-367v33
q49 0 67.5 11t29.5 34q7 18 7 93v523v17v14v11q0 36 -3 45q-6 22 -26 35t-63 13v36zM623 697q62 0 102.5 5t69.5 18q55 23 84 65t29 94q0 80 -57 135.5t-144 55.5q-39 0 -84 -16v-357z" />
    <glyph glyph-name="macron" unicode="&#xaf;" 
d="M1042 1462h-1059v84h1059v-84z" />
    <glyph glyph-name="degree" unicode="&#xb0;" horiz-adv-x="819" 
d="M405 1386q128 0 218 -90t90 -218q0 -125 -90 -216t-218 -91q-125 0 -216 90t-91 217q0 128 89.5 218t217.5 90zM405 1302q-93 0 -158 -65t-65 -158q0 -92 65 -157.5t158 -65.5q92 0 157.5 65.5t65.5 157.5q0 93 -65 158t-158 65z" />
    <glyph glyph-name="plusminus" unicode="&#xb1;" horiz-adv-x="1124" 
d="M23 141v81h498v418h-498v82h498v497h80v-497h500v-82h-500v-418h501v-81h-1079z" />
    <glyph glyph-name="twosuperior" unicode="&#xb2;" horiz-adv-x="614" 
d="M575 816l-61 -152h-494v29q246 192 328 313q50 74 50 143q0 60 -41.5 102t-104.5 42q-56 0 -98.5 -29t-66.5 -89h-45q14 98 77.5 153.5t164.5 55.5q105 0 172 -58t67 -130q0 -66 -48 -141q-75 -117 -295 -295h186q86 0 115 12t49 44h45z" />
    <glyph glyph-name="threesuperior" unicode="&#xb3;" horiz-adv-x="614" 
d="M55 1229q36 74 81 108q64 47 149 47q92 0 145 -45.5t53 -101.5q0 -66 -105 -155q72 -25 108.5 -74.5t36.5 -107.5q0 -103 -85.5 -177t-246.5 -74q-83 0 -121 24q-26 17 -26 39q0 16 16.5 30.5t42.5 14.5q27 0 80.5 -24t91.5 -24q55 0 95.5 39.5t40.5 92.5
q0 44 -26.5 85.5t-68.5 57.5q-61 23 -107 23h-30v28q78 0 130 47t52 108q0 47 -33 80q-34 31 -88 31q-84 0 -147 -88z" />
    <glyph glyph-name="acute" unicode="&#xb4;" horiz-adv-x="682" 
d="M565 1390l-295 -345h-34l105 345h224z" />
    <glyph glyph-name="mu" unicode="&#xb5;" horiz-adv-x="1180" 
d="M196 916h164v-533q0 -144 18 -198q12 -38 48 -65q36 -25 76 -25q117 0 236 134v687h165v-654q0 -102 7 -128t25 -41q18 -13 36 -13q25 0 44 22q25 29 37 102h42q0 -56 -17 -101t-46 -76q-55 -55 -135 -55q-78 0 -120 58q-29 40 -38 132q-85 -100 -162 -146
q-38 -22 -75 -33t-77 -11q-51 0 -92 21q-28 15 -63 64l-1 -46q0 -79 34 -239q13 -65 13 -104q0 -48 -28 -79t-66 -31q-36 0 -61.5 29.5t-25.5 79.5q0 49 29 165q19 77 22 104q12 102 12 179l-1 75v726z" />
    <glyph glyph-name="paragraph" unicode="&#xb6;" horiz-adv-x="928" 
d="M798 1301v-1743h-72v1743h-187v-1743h-73v1043q-90 0 -162.5 13.5t-123.5 36.5q-94 42 -144 131t-50 199t43 180q57 96 154 145.5t253 49.5h495v-55h-133z" />
    <glyph glyph-name="periodcentered" unicode="&#xb7;" horiz-adv-x="512" 
d="M256 789q46 0 78.5 -32.5t32.5 -78.5q0 -44 -32.5 -77.5t-78.5 -33.5q-24 0 -42 7t-37 25q-32 34 -32 79q0 46 32.5 78.5t78.5 32.5z" />
    <glyph glyph-name="periodcentered" unicode="&#x2219;" horiz-adv-x="512" 
d="M256 789q46 0 78.5 -32.5t32.5 -78.5q0 -44 -32.5 -77.5t-78.5 -33.5q-24 0 -42 7t-37 25q-32 34 -32 79q0 46 32.5 78.5t78.5 32.5z" />
    <glyph glyph-name="cedilla" unicode="&#xb8;" horiz-adv-x="682" 
d="M361 16h60l-50 -79q62 -15 93.5 -54t31.5 -92q0 -72 -60.5 -126.5t-154.5 -54.5q-41 0 -53 1q-27 5 -41 6v43l48 -4q51 0 86 33.5t35 76.5q0 30 -23.5 52t-56.5 22l-26 -2z" />
    <glyph glyph-name="onesuperior" unicode="&#xb9;" horiz-adv-x="614" 
d="M136 1297l205 87h35v-592q0 -59 5 -70.5t19 -18.5t77 -7v-32h-325v32q63 0 77 5.5t19.5 17.5t5.5 73v374v17v14q0 48 -5 63q-3 15 -11 22q-5 6 -19 7q-21 0 -67 -20z" />
    <glyph glyph-name="ordmasculine" unicode="&#xba;" horiz-adv-x="635" 
d="M324 1384q123 0 205 -85t82 -208q0 -124 -89 -214t-211 -90q-116 0 -199 81.5t-83 206.5q0 138 82.5 223.5t212.5 85.5zM296 1341q-50 0 -88 -45.5t-38 -142.5q0 -159 69 -258q39 -57 102 -57q57 0 94.5 45t37.5 140q0 157 -71 256q-44 62 -106 62z" />
    <glyph glyph-name="guillemotright" unicode="&#xbb;" 
d="M516 934h57l387 -472l-387 -470h-57l244 470zM64 934h58l394 -472l-394 -470h-58l243 470z" />
    <glyph glyph-name="onequarter" unicode="&#xbc;" horiz-adv-x="1536" 
d="M134 1297l205 87h35v-592q0 -59 5 -70.5t19 -18.5t77 -7v-32h-325v32q63 0 77 5.5t19.5 17.5t5.5 73v374v17v14q0 48 -5 63q-3 15 -11 22q-5 6 -19 7q-21 0 -67 -20zM1292 1384l-934 -1438h-90l935 1438h89zM1501 224v-81h-108v-183h-117v183h-343v73l376 465h84v-457
h108zM1276 224v316l-260 -316h260z" />
    <glyph glyph-name="onehalf" unicode="&#xbd;" horiz-adv-x="1536" 
d="M134 1297l205 87h35v-592q0 -59 5 -70.5t19 -18.5t77 -7v-32h-325v32q63 0 77 5.5t19.5 17.5t5.5 73v374v17v14q0 48 -5 63q-3 15 -11 22q-5 6 -19 7q-21 0 -67 -20zM1268 1384l-935 -1438h-89l935 1438h89zM1494 113l-61 -153h-494v30q246 192 328 313q50 74 50 143
q0 60 -41.5 102t-104.5 42q-56 0 -98.5 -29t-66.5 -89h-45q14 97 77.5 153t164.5 56q106 0 172.5 -58.5t66.5 -129.5q0 -65 -48 -142q-76 -116 -295 -294h187q88 0 115 11.5t48 44.5h45z" />
    <glyph glyph-name="threequarters" unicode="&#xbe;" horiz-adv-x="1536" 
d="M1277 1384l-931 -1438h-90l935 1438h86zM53 1229q36 74 81 108q64 47 149 47q92 0 145 -45.5t53 -101.5q0 -66 -105 -155q72 -25 108.5 -74.5t36.5 -107.5q0 -103 -85.5 -177t-246.5 -74q-83 0 -121 24q-26 17 -26 39q0 16 16.5 30.5t42.5 14.5q27 0 80.5 -24t91.5 -24
q55 0 95.5 39.5t40.5 92.5q0 72 -55 119t-177 47v28q78 0 130 47t52 108q0 47 -33 80q-34 31 -88 31q-84 0 -147 -88zM1501 224v-81h-108v-183h-116v183h-344v73l376 465h84v-457h108zM1277 224v316l-260 -316h260z" />
    <glyph glyph-name="questiondown" unicode="&#xbf;" horiz-adv-x="909" 
d="M452 975q45 0 78 -32.5t33 -78.5q0 -44 -32.5 -77.5t-78.5 -33.5q-24 0 -42 7t-37 25q-32 34 -32 79q0 46 32.5 78.5t78.5 32.5zM441 626h39q0 -59 -6.5 -106.5t-18.5 -90.5q-18 -72 -101 -247t-83 -288q0 -132 66 -204t170 -72q87 0 137 41t50 90q0 30 -31 84.5
t-31 85.5q0 32 24 58q25 23 57 23q41 0 76 -42t35 -110q0 -114 -98 -202q-49 -44 -114.5 -66t-151.5 -22q-170 0 -270.5 94t-100.5 223q0 84 29 152q41 96 150 221q52 61 86.5 108.5t50.5 83t26 84t10 102.5z" />
    <glyph glyph-name="multiply" unicode="&#xd7;" horiz-adv-x="1155" 
d="M165 328l353 353l-352 352l58 58l352 -352l352 352l56 -57l-352 -352l354 -354l-57 -58l-354 354l-353 -353z" />
    <glyph glyph-name="divide" unicode="&#xf7;" horiz-adv-x="1124" 
d="M562 1075q36 0 61 -26q26 -24 26 -61q0 -36 -25.5 -61.5t-62.5 -25.5q-36 0 -62 25q-25 27 -25 62q0 36 25.5 61.5t62.5 25.5zM1101 640h-1078v82h1078v-82zM562 455q36 0 62 -26t26 -62t-26 -62t-62 -26t-62 26t-26 62t25.5 62t62.5 26z" />
  </font>
</defs>
</svg>
